G04 start of page 18 for group -3984 idx -3984 *
G04 Title: (unknown), fab *
G04 Creator: pcb 20100929 *
G04 CreationDate: Mon 18 Oct 2010 20:02:07 GMT UTC *
G04 For: alex *
G04 Format: Gerber/RS-274X *
G04 PCB-Dimensions: 253937 234252 *
G04 PCB-Coordinate-Origin: lower left *
%MOIN*%
%FSLAX25Y25*%
%LNFAB*%
%ADD11C,0.0200*%
%ADD62C,0.0100*%
%ADD64R,0.0080X0.0080*%
%ADD65C,0.0060*%
G54D64*X236182Y127087D02*Y123887D01*
G54D11*G36*
X235635Y127234D02*X239101Y129234D01*
X239501Y128541D01*
X236035Y126541D01*
X235635Y127234D01*
G37*
G36*
X236328Y126541D02*X232862Y128541D01*
X233262Y129234D01*
X236728Y127234D01*
X236328Y126541D01*
G37*
G54D64*X234582Y127087D02*G75*G03X237782Y127087I1600J0D01*G01*
G75*G03X234582Y127087I-1600J0D01*G01*
X236182Y82087D02*Y78887D01*
G54D11*G36*
X235635Y82234D02*X239101Y84234D01*
X239501Y83541D01*
X236035Y81541D01*
X235635Y82234D01*
G37*
G36*
X236328Y81541D02*X232862Y83541D01*
X233262Y84234D01*
X236728Y82234D01*
X236328Y81541D01*
G37*
G54D64*X234582Y82087D02*G75*G03X237782Y82087I1600J0D01*G01*
G75*G03X234582Y82087I-1600J0D01*G01*
X15945Y89804D02*Y86604D01*
G54D11*G36*
X15398Y89951D02*X18864Y91951D01*
X19264Y91258D01*
X15798Y89258D01*
X15398Y89951D01*
G37*
G36*
X16091Y89258D02*X12625Y91258D01*
X13025Y91951D01*
X16491Y89951D01*
X16091Y89258D01*
G37*
G54D64*X14345Y89804D02*G75*G03X17545Y89804I1600J0D01*G01*
G75*G03X14345Y89804I-1600J0D01*G01*
X15945Y134804D02*Y131604D01*
G54D11*G36*
X15398Y134951D02*X18864Y136951D01*
X19264Y136258D01*
X15798Y134258D01*
X15398Y134951D01*
G37*
G36*
X16091Y134258D02*X12625Y136258D01*
X13025Y136951D01*
X16491Y134951D01*
X16091Y134258D01*
G37*
G54D64*X14345Y134804D02*G75*G03X17545Y134804I1600J0D01*G01*
G75*G03X14345Y134804I-1600J0D01*G01*
X15000Y245502D02*Y242302D01*
G54D11*G36*
X14453Y245648D02*X17919Y247648D01*
X18319Y246955D01*
X14853Y244955D01*
X14453Y245648D01*
G37*
G36*
X15146Y244955D02*X11680Y246955D01*
X12080Y247648D01*
X15546Y245648D01*
X15146Y244955D01*
G37*
G54D64*X13400Y245502D02*G75*G03X16600Y245502I1600J0D01*G01*
G75*G03X13400Y245502I-1600J0D01*G01*
G54D65*X140000Y247752D02*Y241752D01*
Y247752D02*Y247002D01*
X143750Y243252D01*
Y247752D02*Y241752D01*
X145551Y247002D02*Y242502D01*
Y247002D02*X146301Y247752D01*
X147801D01*
X148551Y247002D01*
Y242502D01*
X147801Y241752D02*X148551Y242502D01*
X146301Y241752D02*X147801D01*
X145551Y242502D02*X146301Y241752D01*
X140000Y238501D02*X150353D01*
X98000Y244752D02*X101000Y247752D01*
X98000Y244752D02*X101750D01*
X101000Y247752D02*Y241752D01*
X98000Y238501D02*X103551D01*
X45000Y242502D02*X45750Y241752D01*
X45000Y247002D02*Y242502D01*
Y247002D02*X45750Y247752D01*
X47250D01*
X48000Y247002D01*
Y242502D01*
X47250Y241752D02*X48000Y242502D01*
X45750Y241752D02*X47250D01*
X45000Y243252D02*X48000Y246252D01*
X49801Y241752D02*X50551D01*
X53103D02*X54603D01*
X53853Y247752D02*Y241752D01*
X52353Y246252D02*X53853Y247752D01*
X56404Y247002D02*X57154Y247752D01*
X59404D01*
X60154Y247002D01*
Y245502D01*
X56404Y241752D02*X60154Y245502D01*
X56404Y241752D02*X60154D01*
X61956Y242502D02*X62706Y241752D01*
X61956Y244002D02*Y242502D01*
Y244002D02*X62706Y244752D01*
X64206D01*
X64956Y244002D01*
Y242502D01*
X64206Y241752D02*X64956Y242502D01*
X62706Y241752D02*X64206D01*
X61956Y245502D02*X62706Y244752D01*
X61956Y247002D02*Y245502D01*
Y247002D02*X62706Y247752D01*
X64206D01*
X64956Y247002D01*
Y245502D01*
X64206Y244752D02*X64956Y245502D01*
X45000Y238501D02*X66757D01*
X66117Y18136D02*X69317D01*
X66117D02*Y14936D01*
X69317D01*
Y18136D02*Y14936D01*
X58457Y24564D02*X61657D01*
X58457D02*Y21364D01*
X61657D01*
Y24564D02*Y21364D01*
X199582Y40971D02*X202782D01*
X199582D02*Y37771D01*
X202782D01*
Y40971D02*Y37771D01*
X191921Y34543D02*X195121D01*
X191921D02*Y31343D01*
X195121D01*
Y34543D02*Y31343D01*
X148125Y215379D02*X151325D01*
X148125D02*Y212179D01*
X151325D01*
Y215379D02*Y212179D01*
X153125Y206719D02*X156325D01*
X153125D02*Y203519D01*
X156325D01*
Y206719D02*Y203519D01*
X85408Y210262D02*X88608D01*
X85408D02*Y207062D01*
X88608D01*
Y210262D02*Y207062D01*
X94805Y213682D02*X98005D01*
X94805D02*Y210482D01*
X98005D01*
Y213682D02*Y210482D01*
X37377Y32703D02*X40577D01*
X37377D02*Y29503D01*
X40577D01*
Y32703D02*Y29503D01*
X35640Y42551D02*X38840D01*
X35640D02*Y39351D01*
X38840D01*
Y42551D02*Y39351D01*
X115381Y218407D02*X118581D01*
X115381D02*Y215207D01*
X118581D01*
Y218407D02*Y215207D01*
X124778Y214986D02*X127978D01*
X124778D02*Y211786D01*
X127978D01*
Y214986D02*Y211786D01*
X25172Y61837D02*X28372D01*
X25172D02*Y58637D01*
X28372D01*
Y61837D02*Y58637D01*
X30172Y70497D02*X33372D01*
X30172D02*Y67297D01*
X33372D01*
Y70497D02*Y67297D01*
X211160Y67747D02*X214360D01*
X211160D02*Y64547D01*
X214360D01*
Y67747D02*Y64547D01*
X209424Y57900D02*X212624D01*
X209424D02*Y54700D01*
X212624D01*
Y57900D02*Y54700D01*
X173991Y22860D02*X177191D01*
X173991D02*Y19660D01*
X177191D01*
Y22860D02*Y19660D01*
X163991Y22860D02*X167191D01*
X163991D02*Y19660D01*
X167191D01*
Y22860D02*Y19660D01*
X204141Y214364D02*X207341D01*
X204141D02*Y211164D01*
X207341D01*
Y214364D02*Y211164D01*
X211212Y207293D02*X214412D01*
X211212D02*Y204093D01*
X214412D01*
Y207293D02*Y204093D01*
X218283Y200222D02*X221483D01*
X218283D02*Y197022D01*
X221483D01*
Y200222D02*Y197022D01*
X30320Y200450D02*X33520D01*
X30320D02*Y197250D01*
X33520D01*
Y200450D02*Y197250D01*
X37391Y207521D02*X40591D01*
X37391D02*Y204321D01*
X40591D01*
Y207521D02*Y204321D01*
X44463Y214593D02*X47663D01*
X44463D02*Y211393D01*
X47663D01*
Y214593D02*Y211393D01*
X141629Y21090D02*X144829D01*
X141629D02*Y17890D01*
X144829D01*
Y21090D02*Y17890D01*
X131629Y21090D02*X134829D01*
X131629D02*Y17890D01*
X134829D01*
Y21090D02*Y17890D01*
X121629Y21090D02*X124829D01*
X121629D02*Y17890D01*
X124829D01*
Y21090D02*Y17890D01*
X13400Y262102D02*X16600D01*
X13400D02*Y258902D01*
X16600D01*
Y262102D02*Y258902D01*
X135000Y262752D02*Y262002D01*
X136500Y260502D01*
X138000Y262002D01*
Y262752D02*Y262002D01*
X136500Y260502D02*Y256752D01*
X139801Y259752D02*X142051D01*
X139801Y256752D02*X142801D01*
X139801Y262752D02*Y256752D01*
Y262752D02*X142801D01*
X147603D02*X148353Y262002D01*
X145353Y262752D02*X147603D01*
X144603Y262002D02*X145353Y262752D01*
X144603Y262002D02*Y260502D01*
X145353Y259752D01*
X147603D01*
X148353Y259002D01*
Y257502D01*
X147603Y256752D02*X148353Y257502D01*
X145353Y256752D02*X147603D01*
X144603Y257502D02*X145353Y256752D01*
X135000Y253501D02*X150154D01*
X98000Y262002D02*X98750Y262752D01*
X101000D01*
X101750Y262002D01*
Y260502D01*
X98000Y256752D02*X101750Y260502D01*
X98000Y256752D02*X101750D01*
X103551D02*X107301Y260502D01*
Y262752D02*Y260502D01*
X103551Y262752D02*X107301D01*
X98000Y253501D02*X109103D01*
X45000Y257502D02*X45750Y256752D01*
X45000Y262002D02*Y257502D01*
Y262002D02*X45750Y262752D01*
X47250D01*
X48000Y262002D01*
Y257502D01*
X47250Y256752D02*X48000Y257502D01*
X45750Y256752D02*X47250D01*
X45000Y258252D02*X48000Y261252D01*
X49801Y256752D02*X50551D01*
X52353Y257502D02*X53103Y256752D01*
X52353Y262002D02*Y257502D01*
Y262002D02*X53103Y262752D01*
X54603D01*
X55353Y262002D01*
Y257502D01*
X54603Y256752D02*X55353Y257502D01*
X53103Y256752D02*X54603D01*
X52353Y258252D02*X55353Y261252D01*
X57154Y259752D02*X60154Y262752D01*
X57154Y259752D02*X60904D01*
X60154Y262752D02*Y256752D01*
X62706Y262002D02*X63456Y262752D01*
X64956D01*
X65706Y262002D01*
Y257502D01*
X64956Y256752D02*X65706Y257502D01*
X63456Y256752D02*X64956D01*
X62706Y257502D02*X63456Y256752D01*
Y259752D02*X65706D01*
X45000Y253501D02*X67507D01*
X59750Y68503D02*G75*G03X61350Y68503I800J0D01*G01*
G75*G03X59750Y68503I-800J0D01*G01*
X69750D02*G75*G03X71350Y68503I800J0D01*G01*
G75*G03X69750Y68503I-800J0D01*G01*
X79750D02*G75*G03X81350Y68503I800J0D01*G01*
G75*G03X79750Y68503I-800J0D01*G01*
X89750D02*G75*G03X91350Y68503I800J0D01*G01*
G75*G03X89750Y68503I-800J0D01*G01*
X99750D02*G75*G03X101350Y68503I800J0D01*G01*
G75*G03X99750Y68503I-800J0D01*G01*
X105917Y191969D02*G75*G03X107517Y191969I800J0D01*G01*
G75*G03X105917Y191969I-800J0D01*G01*
X115917D02*G75*G03X117517Y191969I800J0D01*G01*
G75*G03X115917Y191969I-800J0D01*G01*
X125917D02*G75*G03X127517Y191969I800J0D01*G01*
G75*G03X125917Y191969I-800J0D01*G01*
X135917D02*G75*G03X137517Y191969I800J0D01*G01*
G75*G03X135917Y191969I-800J0D01*G01*
X14200Y275502D02*G75*G03X15800Y275502I800J0D01*G01*
G75*G03X14200Y275502I-800J0D01*G01*
X135000Y277752D02*Y277002D01*
X136500Y275502D01*
X138000Y277002D01*
Y277752D02*Y277002D01*
X136500Y275502D02*Y271752D01*
X139801Y274752D02*X142051D01*
X139801Y271752D02*X142801D01*
X139801Y277752D02*Y271752D01*
Y277752D02*X142801D01*
X147603D02*X148353Y277002D01*
X145353Y277752D02*X147603D01*
X144603Y277002D02*X145353Y277752D01*
X144603Y277002D02*Y275502D01*
X145353Y274752D01*
X147603D01*
X148353Y274002D01*
Y272502D01*
X147603Y271752D02*X148353Y272502D01*
X145353Y271752D02*X147603D01*
X144603Y272502D02*X145353Y271752D01*
X135000Y268501D02*X150154D01*
X98000Y271752D02*X101000Y274752D01*
Y277002D02*Y274752D01*
X100250Y277752D02*X101000Y277002D01*
X98750Y277752D02*X100250D01*
X98000Y277002D02*X98750Y277752D01*
X98000Y277002D02*Y275502D01*
X98750Y274752D01*
X101000D01*
X98000Y268501D02*X102801D01*
X45000Y272502D02*X45750Y271752D01*
X45000Y277002D02*Y272502D01*
Y277002D02*X45750Y277752D01*
X47250D01*
X48000Y277002D01*
Y272502D01*
X47250Y271752D02*X48000Y272502D01*
X45750Y271752D02*X47250D01*
X45000Y273252D02*X48000Y276252D01*
X49801Y271752D02*X50551D01*
X52353Y272502D02*X53103Y271752D01*
X52353Y277002D02*Y272502D01*
Y277002D02*X53103Y277752D01*
X54603D01*
X55353Y277002D01*
Y272502D01*
X54603Y271752D02*X55353Y272502D01*
X53103Y271752D02*X54603D01*
X52353Y273252D02*X55353Y276252D01*
X57154Y277002D02*X57904Y277752D01*
X59404D01*
X60154Y277002D01*
Y272502D01*
X59404Y271752D02*X60154Y272502D01*
X57904Y271752D02*X59404D01*
X57154Y272502D02*X57904Y271752D01*
Y274752D02*X60154D01*
X61956Y272502D02*X62706Y271752D01*
X61956Y274002D02*Y272502D01*
Y274002D02*X62706Y274752D01*
X64206D01*
X64956Y274002D01*
Y272502D01*
X64206Y271752D02*X64956Y272502D01*
X62706Y271752D02*X64206D01*
X61956Y275502D02*X62706Y274752D01*
X61956Y277002D02*Y275502D01*
Y277002D02*X62706Y277752D01*
X64206D01*
X64956Y277002D01*
Y275502D01*
X64206Y274752D02*X64956Y275502D01*
X45000Y268501D02*X66757D01*
X199982Y88287D02*X202382Y85887D01*
X199982D02*X202382Y88287D01*
X209982Y93287D02*X212382Y90887D01*
X209982D02*X212382Y93287D01*
X199982Y108287D02*X202382Y105887D01*
X199982D02*X202382Y108287D01*
X209982Y113287D02*X212382Y110887D01*
X209982D02*X212382Y113287D01*
X209982Y103287D02*X212382Y100887D01*
X209982D02*X212382Y103287D01*
X209982Y123287D02*X212382Y120887D01*
X209982D02*X212382Y123287D01*
X199982Y118287D02*X202382Y115887D01*
X199982D02*X202382Y118287D01*
X199982Y98287D02*X202382Y95887D01*
X199982D02*X202382Y98287D01*
X49745Y131004D02*X52145Y128604D01*
X49745D02*X52145Y131004D01*
X39745Y126004D02*X42145Y123604D01*
X39745D02*X42145Y126004D01*
X49745Y111004D02*X52145Y108604D01*
X49745D02*X52145Y111004D01*
X39745Y106004D02*X42145Y103604D01*
X39745D02*X42145Y106004D01*
X39745Y116004D02*X42145Y113604D01*
X39745D02*X42145Y116004D01*
X39745Y96004D02*X42145Y93604D01*
X39745D02*X42145Y96004D01*
X49745Y101004D02*X52145Y98604D01*
X49745D02*X52145Y101004D01*
X49745Y121004D02*X52145Y118604D01*
X49745D02*X52145Y121004D01*
X73210Y174035D02*X75610Y171635D01*
X73210D02*X75610Y174035D01*
X143682Y152775D02*X146082Y150375D01*
X143682D02*X146082Y152775D01*
X128722Y204350D02*X131122Y201950D01*
X128722D02*X131122Y204350D01*
X78722Y196476D02*X81122Y194076D01*
X78722D02*X81122Y196476D01*
X34234Y142539D02*X36634Y140139D01*
X34234D02*X36634Y142539D01*
X193289Y143326D02*X195689Y140926D01*
X193289D02*X195689Y143326D01*
X170848Y176397D02*X173248Y173997D01*
X170848D02*X173248Y176397D01*
X217698Y106712D02*X220098Y104312D01*
X217698D02*X220098Y106712D01*
X168485Y76791D02*X170885Y74391D01*
X168485D02*X170885Y76791D01*
X13800Y291702D02*X16200Y289302D01*
X13800D02*X16200Y291702D01*
X135000Y292752D02*Y292002D01*
X136500Y290502D01*
X138000Y292002D01*
Y292752D02*Y292002D01*
X136500Y290502D02*Y286752D01*
X139801Y289752D02*X142051D01*
X139801Y286752D02*X142801D01*
X139801Y292752D02*Y286752D01*
Y292752D02*X142801D01*
X147603D02*X148353Y292002D01*
X145353Y292752D02*X147603D01*
X144603Y292002D02*X145353Y292752D01*
X144603Y292002D02*Y290502D01*
X145353Y289752D01*
X147603D01*
X148353Y289002D01*
Y287502D01*
X147603Y286752D02*X148353Y287502D01*
X145353Y286752D02*X147603D01*
X144603Y287502D02*X145353Y286752D01*
X135000Y283501D02*X150154D01*
X98000Y292002D02*X98750Y292752D01*
X101000D01*
X101750Y292002D01*
Y290502D01*
X98000Y286752D02*X101750Y290502D01*
X98000Y286752D02*X101750D01*
X103551Y292752D02*X106551D01*
X103551D02*Y289752D01*
X104301Y290502D01*
X105801D01*
X106551Y289752D01*
Y287502D01*
X105801Y286752D02*X106551Y287502D01*
X104301Y286752D02*X105801D01*
X103551Y287502D02*X104301Y286752D01*
X98000Y283501D02*X108353D01*
X45000Y287502D02*X45750Y286752D01*
X45000Y292002D02*Y287502D01*
Y292002D02*X45750Y292752D01*
X47250D01*
X48000Y292002D01*
Y287502D01*
X47250Y286752D02*X48000Y287502D01*
X45750Y286752D02*X47250D01*
X45000Y288252D02*X48000Y291252D01*
X49801Y286752D02*X50551D01*
X52353Y287502D02*X53103Y286752D01*
X52353Y292002D02*Y287502D01*
Y292002D02*X53103Y292752D01*
X54603D01*
X55353Y292002D01*
Y287502D01*
X54603Y286752D02*X55353Y287502D01*
X53103Y286752D02*X54603D01*
X52353Y288252D02*X55353Y291252D01*
X57154Y292002D02*X57904Y292752D01*
X59404D01*
X60154Y292002D01*
Y287502D01*
X59404Y286752D02*X60154Y287502D01*
X57904Y286752D02*X59404D01*
X57154Y287502D02*X57904Y286752D01*
Y289752D02*X60154D01*
X61956Y292752D02*X64956D01*
X61956D02*Y289752D01*
X62706Y290502D01*
X64206D01*
X64956Y289752D01*
Y287502D01*
X64206Y286752D02*X64956Y287502D01*
X62706Y286752D02*X64206D01*
X61956Y287502D02*X62706Y286752D01*
X45000Y283501D02*X66757D01*
X27559Y153963D02*Y150763D01*
X25959Y152363D02*X29159D01*
X27560Y187427D02*Y184227D01*
X25960Y185827D02*X29160D01*
X64961Y153569D02*Y150369D01*
X63361Y151969D02*X66561D01*
X64567Y187820D02*Y184620D01*
X62967Y186220D02*X66167D01*
X15000Y307102D02*Y303902D01*
X13400Y305502D02*X16600D01*
X135000Y307752D02*Y307002D01*
X136500Y305502D01*
X138000Y307002D01*
Y307752D02*Y307002D01*
X136500Y305502D02*Y301752D01*
X139801Y304752D02*X142051D01*
X139801Y301752D02*X142801D01*
X139801Y307752D02*Y301752D01*
Y307752D02*X142801D01*
X147603D02*X148353Y307002D01*
X145353Y307752D02*X147603D01*
X144603Y307002D02*X145353Y307752D01*
X144603Y307002D02*Y305502D01*
X145353Y304752D01*
X147603D01*
X148353Y304002D01*
Y302502D01*
X147603Y301752D02*X148353Y302502D01*
X145353Y301752D02*X147603D01*
X144603Y302502D02*X145353Y301752D01*
X135000Y298501D02*X150154D01*
X98000Y304752D02*X101000Y307752D01*
X98000Y304752D02*X101750D01*
X101000Y307752D02*Y301752D01*
X98000Y298501D02*X103551D01*
X45000Y302502D02*X45750Y301752D01*
X45000Y307002D02*Y302502D01*
Y307002D02*X45750Y307752D01*
X47250D01*
X48000Y307002D01*
Y302502D01*
X47250Y301752D02*X48000Y302502D01*
X45750Y301752D02*X47250D01*
X45000Y303252D02*X48000Y306252D01*
X49801Y301752D02*X50551D01*
X52353Y302502D02*X53103Y301752D01*
X52353Y307002D02*Y302502D01*
Y307002D02*X53103Y307752D01*
X54603D01*
X55353Y307002D01*
Y302502D01*
X54603Y301752D02*X55353Y302502D01*
X53103Y301752D02*X54603D01*
X52353Y303252D02*X55353Y306252D01*
X57154Y307002D02*X57904Y307752D01*
X60154D01*
X60904Y307002D01*
Y305502D01*
X57154Y301752D02*X60904Y305502D01*
X57154Y301752D02*X60904D01*
X62706Y302502D02*X63456Y301752D01*
X62706Y304002D02*Y302502D01*
Y304002D02*X63456Y304752D01*
X64956D01*
X65706Y304002D01*
Y302502D01*
X64956Y301752D02*X65706Y302502D01*
X63456Y301752D02*X64956D01*
X62706Y305502D02*X63456Y304752D01*
X62706Y307002D02*Y305502D01*
Y307002D02*X63456Y307752D01*
X64956D01*
X65706Y307002D01*
Y305502D01*
X64956Y304752D02*X65706Y305502D01*
X45000Y298501D02*X67507D01*
X125197Y181890D02*Y180290D01*
Y181890D02*X126583Y182690D01*
X125197Y181890D02*X123811Y182690D01*
X224016Y180119D02*Y178519D01*
Y180119D02*X225402Y180919D01*
X224016Y180119D02*X222630Y180919D01*
X78347Y218898D02*Y217298D01*
Y218898D02*X79733Y219698D01*
X78347Y218898D02*X76961Y219698D01*
X175197Y83465D02*Y81865D01*
Y83465D02*X176583Y84265D01*
X175197Y83465D02*X173811Y84265D01*
X223426Y212992D02*Y211392D01*
Y212992D02*X224812Y213792D01*
X223426Y212992D02*X222040Y213792D01*
X173623Y135827D02*Y134227D01*
Y135827D02*X175009Y136627D01*
X173623Y135827D02*X172237Y136627D01*
X19686Y193308D02*Y191708D01*
Y193308D02*X21072Y194108D01*
X19686Y193308D02*X18300Y194108D01*
X180217Y62969D02*Y61369D01*
Y62969D02*X181603Y63769D01*
X180217Y62969D02*X178831Y63769D01*
X179134Y135040D02*Y133440D01*
Y135040D02*X180520Y135840D01*
X179134Y135040D02*X177748Y135840D01*
X111418Y89371D02*Y87771D01*
Y89371D02*X112804Y90171D01*
X111418Y89371D02*X110032Y90171D01*
X168504Y209843D02*Y208243D01*
Y209843D02*X169890Y210643D01*
X168504Y209843D02*X167118Y210643D01*
X109056Y136615D02*Y135015D01*
Y136615D02*X110442Y137415D01*
X109056Y136615D02*X107670Y137415D01*
X48425Y68111D02*Y66511D01*
Y68111D02*X49811Y68911D01*
X48425Y68111D02*X47039Y68911D01*
X103150Y89764D02*Y88164D01*
Y89764D02*X104536Y90564D01*
X103150Y89764D02*X101764Y90564D01*
X101969Y111812D02*Y110212D01*
Y111812D02*X103355Y112612D01*
X101969Y111812D02*X100583Y112612D01*
X52363Y164174D02*Y162574D01*
Y164174D02*X53749Y164974D01*
X52363Y164174D02*X50977Y164974D01*
X132284Y125591D02*Y123991D01*
Y125591D02*X133670Y126391D01*
X132284Y125591D02*X130898Y126391D01*
X68111Y157875D02*Y156275D01*
Y157875D02*X69497Y158675D01*
X68111Y157875D02*X66725Y158675D01*
X108662Y146851D02*Y145251D01*
Y146851D02*X110048Y147651D01*
X108662Y146851D02*X107276Y147651D01*
X179922Y54331D02*Y52731D01*
Y54331D02*X181308Y55131D01*
X179922Y54331D02*X178536Y55131D01*
X184646Y63386D02*Y61786D01*
Y63386D02*X186032Y64186D01*
X184646Y63386D02*X183260Y64186D01*
X174016Y96063D02*Y94463D01*
Y96063D02*X175402Y96863D01*
X174016Y96063D02*X172630Y96863D01*
X9843Y205513D02*Y203913D01*
Y205513D02*X11229Y206313D01*
X9843Y205513D02*X8457Y206313D01*
X63780Y167717D02*Y166117D01*
Y167717D02*X65166Y168517D01*
X63780Y167717D02*X62394Y168517D01*
X115748Y141339D02*Y139739D01*
Y141339D02*X117134Y142139D01*
X115748Y141339D02*X114362Y142139D01*
X85040Y106300D02*Y104700D01*
Y106300D02*X86426Y107100D01*
X85040Y106300D02*X83654Y107100D01*
X74410Y151575D02*Y149975D01*
Y151575D02*X75796Y152375D01*
X74410Y151575D02*X73024Y152375D01*
X174410Y146063D02*Y144463D01*
Y146063D02*X175796Y146863D01*
X174410Y146063D02*X173024Y146863D01*
X109449Y103938D02*Y102338D01*
Y103938D02*X110835Y104738D01*
X109449Y103938D02*X108063Y104738D01*
X74016Y196063D02*Y194463D01*
Y196063D02*X75402Y196863D01*
X74016Y196063D02*X72630Y196863D01*
X126772Y51182D02*Y49582D01*
Y51182D02*X128158Y51982D01*
X126772Y51182D02*X125386Y51982D01*
X106300Y133071D02*Y131471D01*
Y133071D02*X107686Y133871D01*
X106300Y133071D02*X104914Y133871D01*
X127166Y94882D02*Y93282D01*
Y94882D02*X128552Y95682D01*
X127166Y94882D02*X125780Y95682D01*
X57087Y101182D02*Y99582D01*
Y101182D02*X58473Y101982D01*
X57087Y101182D02*X55701Y101982D01*
X57087Y110237D02*Y108637D01*
Y110237D02*X58473Y111037D01*
X57087Y110237D02*X55701Y111037D01*
X94489Y144489D02*Y142889D01*
Y144489D02*X95875Y145289D01*
X94489Y144489D02*X93103Y145289D01*
X44489Y72835D02*Y71235D01*
Y72835D02*X45875Y73635D01*
X44489Y72835D02*X43103Y73635D01*
X66930Y138977D02*Y137377D01*
Y138977D02*X68316Y139777D01*
X66930Y138977D02*X65544Y139777D01*
X60237Y157875D02*Y156275D01*
Y157875D02*X61623Y158675D01*
X60237Y157875D02*X58851Y158675D01*
X71261Y124803D02*Y123203D01*
Y124803D02*X72647Y125603D01*
X71261Y124803D02*X69875Y125603D01*
X70867Y59449D02*Y57849D01*
Y59449D02*X72253Y60249D01*
X70867Y59449D02*X69481Y60249D01*
X71260Y46457D02*Y44857D01*
Y46457D02*X72646Y47257D01*
X71260Y46457D02*X69874Y47257D01*
X72048Y38583D02*Y36983D01*
Y38583D02*X73434Y39383D01*
X72048Y38583D02*X70662Y39383D01*
X78741Y209843D02*Y208243D01*
Y209843D02*X80127Y210643D01*
X78741Y209843D02*X77355Y210643D01*
X108662Y141733D02*Y140133D01*
Y141733D02*X110048Y142533D01*
X108662Y141733D02*X107276Y142533D01*
X162599Y70079D02*Y68479D01*
Y70079D02*X163985Y70879D01*
X162599Y70079D02*X161213Y70879D01*
X162599Y77953D02*Y76353D01*
Y77953D02*X163985Y78753D01*
X162599Y77953D02*X161213Y78753D01*
X241733Y160237D02*Y158637D01*
Y160237D02*X243119Y161037D01*
X241733Y160237D02*X240347Y161037D01*
X159449Y174016D02*Y172416D01*
Y174016D02*X160835Y174816D01*
X159449Y174016D02*X158063Y174816D01*
X167717Y108662D02*Y107062D01*
Y108662D02*X169103Y109462D01*
X167717Y108662D02*X166331Y109462D01*
X45670Y181890D02*Y180290D01*
Y181890D02*X47056Y182690D01*
X45670Y181890D02*X44284Y182690D01*
X109449Y173229D02*Y171629D01*
Y173229D02*X110835Y174029D01*
X109449Y173229D02*X108063Y174029D01*
X94095Y34645D02*Y33045D01*
Y34645D02*X95481Y35445D01*
X94095Y34645D02*X92709Y35445D01*
X105906Y82678D02*Y81078D01*
Y82678D02*X107292Y83478D01*
X105906Y82678D02*X104520Y83478D01*
X168504Y120080D02*Y118480D01*
Y120080D02*X169890Y120880D01*
X168504Y120080D02*X167118Y120880D01*
X152756Y119292D02*Y117692D01*
Y119292D02*X154142Y120092D01*
X152756Y119292D02*X151370Y120092D01*
X84252Y135827D02*Y134227D01*
Y135827D02*X85638Y136627D01*
X84252Y135827D02*X82866Y136627D01*
X109449Y75985D02*Y74385D01*
Y75985D02*X110835Y76785D01*
X109449Y75985D02*X108063Y76785D01*
X76378Y101969D02*Y100369D01*
Y101969D02*X77764Y102769D01*
X76378Y101969D02*X74992Y102769D01*
X73229Y120473D02*Y118873D01*
Y120473D02*X74615Y121273D01*
X73229Y120473D02*X71843Y121273D01*
X153150Y29134D02*Y27534D01*
Y29134D02*X154536Y29934D01*
X153150Y29134D02*X151764Y29934D01*
X93308Y102756D02*Y101156D01*
Y102756D02*X94694Y103556D01*
X93308Y102756D02*X91922Y103556D01*
X159056Y151182D02*Y149582D01*
Y151182D02*X160442Y151982D01*
X159056Y151182D02*X157670Y151982D01*
X202756Y13780D02*Y12180D01*
Y13780D02*X204142Y14580D01*
X202756Y13780D02*X201370Y14580D01*
X73229Y93308D02*Y91708D01*
Y93308D02*X74615Y94108D01*
X73229Y93308D02*X71843Y94108D01*
X81103Y143701D02*Y142101D01*
Y143701D02*X82489Y144501D01*
X81103Y143701D02*X79717Y144501D01*
X94489Y154725D02*Y153125D01*
Y154725D02*X95875Y155525D01*
X94489Y154725D02*X93103Y155525D01*
X146457Y48032D02*Y46432D01*
Y48032D02*X147843Y48832D01*
X146457Y48032D02*X145071Y48832D01*
X166142Y48032D02*Y46432D01*
Y48032D02*X167528Y48832D01*
X166142Y48032D02*X164756Y48832D01*
X240158Y185040D02*Y183440D01*
Y185040D02*X241544Y185840D01*
X240158Y185040D02*X238772Y185840D01*
X243702Y207874D02*Y206274D01*
Y207874D02*X245088Y208674D01*
X243702Y207874D02*X242316Y208674D01*
X36615Y55119D02*Y53519D01*
Y55119D02*X38001Y55919D01*
X36615Y55119D02*X35229Y55919D01*
X65355Y45670D02*Y44070D01*
Y45670D02*X66741Y46470D01*
X65355Y45670D02*X63969Y46470D01*
X11811Y33859D02*Y32259D01*
Y33859D02*X13197Y34659D01*
X11811Y33859D02*X10425Y34659D01*
X9056Y72441D02*Y70841D01*
Y72441D02*X10442Y73241D01*
X9056Y72441D02*X7670Y73241D01*
X114961Y83465D02*Y81865D01*
Y83465D02*X116347Y84265D01*
X114961Y83465D02*X113575Y84265D01*
X111811Y45670D02*Y44070D01*
Y45670D02*X113197Y46470D01*
X111811Y45670D02*X110425Y46470D01*
X157087Y136222D02*Y134622D01*
Y136222D02*X158473Y137022D01*
X157087Y136222D02*X155701Y137022D01*
X167717Y132678D02*Y131078D01*
Y132678D02*X169103Y133478D01*
X167717Y132678D02*X166331Y133478D01*
X229528Y217323D02*Y215723D01*
Y217323D02*X230914Y218123D01*
X229528Y217323D02*X228142Y218123D01*
X219685Y227953D02*Y226353D01*
Y227953D02*X221071Y228753D01*
X219685Y227953D02*X218299Y228753D01*
X159449Y161812D02*Y160212D01*
Y161812D02*X160835Y162612D01*
X159449Y161812D02*X158063Y162612D01*
X125591Y125591D02*Y123991D01*
Y125591D02*X126977Y126391D01*
X125591Y125591D02*X124205Y126391D01*
X133465Y163583D02*Y161983D01*
Y163583D02*X134851Y164383D01*
X133465Y163583D02*X132079Y164383D01*
X139961Y146851D02*Y145251D01*
Y146851D02*X141347Y147651D01*
X139961Y146851D02*X138575Y147651D01*
X146260Y133465D02*Y131865D01*
Y133465D02*X147646Y134265D01*
X146260Y133465D02*X144874Y134265D01*
X227363Y23819D02*Y22219D01*
Y23819D02*X228749Y24619D01*
X227363Y23819D02*X225977Y24619D01*
X204528Y192520D02*Y190920D01*
Y192520D02*X205914Y193320D01*
X204528Y192520D02*X203142Y193320D01*
X204134Y182481D02*Y180881D01*
Y182481D02*X205520Y183281D01*
X204134Y182481D02*X202748Y183281D01*
X50197Y193701D02*Y192101D01*
Y193701D02*X51583Y194501D01*
X50197Y193701D02*X48811Y194501D01*
X56497Y198819D02*Y197219D01*
Y198819D02*X57883Y199619D01*
X56497Y198819D02*X55111Y199619D01*
X231890Y212008D02*Y210408D01*
Y212008D02*X233276Y212808D01*
X231890Y212008D02*X230504Y212808D01*
X15000Y320502D02*Y318902D01*
Y320502D02*X16386Y321302D01*
X15000Y320502D02*X13614Y321302D01*
X135000Y322752D02*Y322002D01*
X136500Y320502D01*
X138000Y322002D01*
Y322752D02*Y322002D01*
X136500Y320502D02*Y316752D01*
X139801Y319752D02*X142051D01*
X139801Y316752D02*X142801D01*
X139801Y322752D02*Y316752D01*
Y322752D02*X142801D01*
X147603D02*X148353Y322002D01*
X145353Y322752D02*X147603D01*
X144603Y322002D02*X145353Y322752D01*
X144603Y322002D02*Y320502D01*
X145353Y319752D01*
X147603D01*
X148353Y319002D01*
Y317502D01*
X147603Y316752D02*X148353Y317502D01*
X145353Y316752D02*X147603D01*
X144603Y317502D02*X145353Y316752D01*
X135000Y313501D02*X150154D01*
X98000Y316752D02*X101000Y319752D01*
Y322002D02*Y319752D01*
X100250Y322752D02*X101000Y322002D01*
X98750Y322752D02*X100250D01*
X98000Y322002D02*X98750Y322752D01*
X98000Y322002D02*Y320502D01*
X98750Y319752D01*
X101000D01*
X102801Y322002D02*X103551Y322752D01*
X105801D01*
X106551Y322002D01*
Y320502D01*
X102801Y316752D02*X106551Y320502D01*
X102801Y316752D02*X106551D01*
X98000Y313501D02*X108353D01*
X45000Y317502D02*X45750Y316752D01*
X45000Y322002D02*Y317502D01*
Y322002D02*X45750Y322752D01*
X47250D01*
X48000Y322002D01*
Y317502D01*
X47250Y316752D02*X48000Y317502D01*
X45750Y316752D02*X47250D01*
X45000Y318252D02*X48000Y321252D01*
X49801Y316752D02*X50551D01*
X52353Y317502D02*X53103Y316752D01*
X52353Y322002D02*Y317502D01*
Y322002D02*X53103Y322752D01*
X54603D01*
X55353Y322002D01*
Y317502D01*
X54603Y316752D02*X55353Y317502D01*
X53103Y316752D02*X54603D01*
X52353Y318252D02*X55353Y321252D01*
X57154Y322002D02*X57904Y322752D01*
X60154D01*
X60904Y322002D01*
Y320502D01*
X57154Y316752D02*X60904Y320502D01*
X57154Y316752D02*X60904D01*
X62706Y317502D02*X63456Y316752D01*
X62706Y322002D02*Y317502D01*
Y322002D02*X63456Y322752D01*
X64956D01*
X65706Y322002D01*
Y317502D01*
X64956Y316752D02*X65706Y317502D01*
X63456Y316752D02*X64956D01*
X62706Y318252D02*X65706Y321252D01*
X45000Y313501D02*X67507D01*
X3000Y337752D02*X3750Y337002D01*
X750Y337752D02*X3000D01*
X0Y337002D02*X750Y337752D01*
X0Y337002D02*Y335502D01*
X750Y334752D01*
X3000D01*
X3750Y334002D01*
Y332502D01*
X3000Y331752D02*X3750Y332502D01*
X750Y331752D02*X3000D01*
X0Y332502D02*X750Y331752D01*
X5551Y334752D02*Y332502D01*
X6301Y331752D01*
X8551Y334752D02*Y330252D01*
X7801Y329502D02*X8551Y330252D01*
X6301Y329502D02*X7801D01*
X5551Y330252D02*X6301Y329502D01*
Y331752D02*X7801D01*
X8551Y332502D01*
X11103Y334002D02*Y331752D01*
Y334002D02*X11853Y334752D01*
X12603D01*
X13353Y334002D01*
Y331752D01*
Y334002D02*X14103Y334752D01*
X14853D01*
X15603Y334002D01*
Y331752D01*
X10353Y334752D02*X11103Y334002D01*
X17404Y337752D02*Y331752D01*
Y332502D02*X18154Y331752D01*
X19654D01*
X20404Y332502D01*
Y334002D02*Y332502D01*
X19654Y334752D02*X20404Y334002D01*
X18154Y334752D02*X19654D01*
X17404Y334002D02*X18154Y334752D01*
X22206Y334002D02*Y332502D01*
Y334002D02*X22956Y334752D01*
X24456D01*
X25206Y334002D01*
Y332502D01*
X24456Y331752D02*X25206Y332502D01*
X22956Y331752D02*X24456D01*
X22206Y332502D02*X22956Y331752D01*
X27007Y337752D02*Y332502D01*
X27757Y331752D01*
X41750Y337752D02*Y331752D01*
X44000Y337752D02*X44750Y337002D01*
Y332502D01*
X44000Y331752D02*X44750Y332502D01*
X41000Y331752D02*X44000D01*
X41000Y337752D02*X44000D01*
X46551Y336252D02*Y335502D01*
Y334002D02*Y331752D01*
X50303Y334752D02*X51053Y334002D01*
X48803Y334752D02*X50303D01*
X48053Y334002D02*X48803Y334752D01*
X48053Y334002D02*Y332502D01*
X48803Y331752D01*
X51053Y334752D02*Y332502D01*
X51803Y331752D01*
X48803D02*X50303D01*
X51053Y332502D01*
X54354Y334002D02*Y331752D01*
Y334002D02*X55104Y334752D01*
X55854D01*
X56604Y334002D01*
Y331752D01*
Y334002D02*X57354Y334752D01*
X58104D01*
X58854Y334002D01*
Y331752D01*
X53604Y334752D02*X54354Y334002D01*
X60656Y331752D02*X61406D01*
X65907Y332502D02*X66657Y331752D01*
X65907Y337002D02*X66657Y337752D01*
X65907Y337002D02*Y332502D01*
X68459Y337752D02*X69959D01*
X69209D02*Y331752D01*
X68459D02*X69959D01*
X72510Y334002D02*Y331752D01*
Y334002D02*X73260Y334752D01*
X74010D01*
X74760Y334002D01*
Y331752D01*
X71760Y334752D02*X72510Y334002D01*
X77312Y334752D02*X79562D01*
X76562Y334002D02*X77312Y334752D01*
X76562Y334002D02*Y332502D01*
X77312Y331752D01*
X79562D01*
X81363Y337752D02*Y331752D01*
Y334002D02*X82113Y334752D01*
X83613D01*
X84363Y334002D01*
Y331752D01*
X86165Y337752D02*X86915Y337002D01*
Y332502D01*
X86165Y331752D02*X86915Y332502D01*
X95750Y331752D02*X98000D01*
X95000Y332502D02*X95750Y331752D01*
X95000Y337002D02*Y332502D01*
Y337002D02*X95750Y337752D01*
X98000D01*
X99801Y334002D02*Y332502D01*
Y334002D02*X100551Y334752D01*
X102051D01*
X102801Y334002D01*
Y332502D01*
X102051Y331752D02*X102801Y332502D01*
X100551Y331752D02*X102051D01*
X99801Y332502D02*X100551Y331752D01*
X104603Y334752D02*Y332502D01*
X105353Y331752D01*
X106853D01*
X107603Y332502D01*
Y334752D02*Y332502D01*
X110154Y334002D02*Y331752D01*
Y334002D02*X110904Y334752D01*
X111654D01*
X112404Y334002D01*
Y331752D01*
X109404Y334752D02*X110154Y334002D01*
X114956Y337752D02*Y332502D01*
X115706Y331752D01*
X114206Y335502D02*X115706D01*
X130750Y337752D02*Y331752D01*
X130000Y337752D02*X133000D01*
X133750Y337002D01*
Y335502D01*
X133000Y334752D02*X133750Y335502D01*
X130750Y334752D02*X133000D01*
X135551Y337752D02*Y332502D01*
X136301Y331752D01*
X140053Y334752D02*X140803Y334002D01*
X138553Y334752D02*X140053D01*
X137803Y334002D02*X138553Y334752D01*
X137803Y334002D02*Y332502D01*
X138553Y331752D01*
X140803Y334752D02*Y332502D01*
X141553Y331752D01*
X138553D02*X140053D01*
X140803Y332502D01*
X144104Y337752D02*Y332502D01*
X144854Y331752D01*
X143354Y335502D02*X144854D01*
X147106Y331752D02*X149356D01*
X146356Y332502D02*X147106Y331752D01*
X146356Y334002D02*Y332502D01*
Y334002D02*X147106Y334752D01*
X148606D01*
X149356Y334002D01*
X146356Y333252D02*X149356D01*
Y334002D02*Y333252D01*
X154157Y337752D02*Y331752D01*
X153407D02*X154157Y332502D01*
X151907Y331752D02*X153407D01*
X151157Y332502D02*X151907Y331752D01*
X151157Y334002D02*Y332502D01*
Y334002D02*X151907Y334752D01*
X153407D01*
X154157Y334002D01*
X157459Y334752D02*Y334002D01*
Y332502D02*Y331752D01*
X155959Y337002D02*Y336252D01*
Y337002D02*X156709Y337752D01*
X158209D01*
X158959Y337002D01*
Y336252D01*
X157459Y334752D02*X158959Y336252D01*
X0Y352752D02*X3000D01*
X1500D02*Y346752D01*
X4801Y352752D02*Y346752D01*
Y349002D02*X5551Y349752D01*
X7051D01*
X7801Y349002D01*
Y346752D01*
X10353D02*X12603D01*
X9603Y347502D02*X10353Y346752D01*
X9603Y349002D02*Y347502D01*
Y349002D02*X10353Y349752D01*
X11853D01*
X12603Y349002D01*
X9603Y348252D02*X12603D01*
Y349002D02*Y348252D01*
X15154Y349002D02*Y346752D01*
Y349002D02*X15904Y349752D01*
X17404D01*
X14404D02*X15154Y349002D01*
X19956Y346752D02*X22206D01*
X19206Y347502D02*X19956Y346752D01*
X19206Y349002D02*Y347502D01*
Y349002D02*X19956Y349752D01*
X21456D01*
X22206Y349002D01*
X19206Y348252D02*X22206D01*
Y349002D02*Y348252D01*
X28957Y349752D02*X29707Y349002D01*
X27457Y349752D02*X28957D01*
X26707Y349002D02*X27457Y349752D01*
X26707Y349002D02*Y347502D01*
X27457Y346752D01*
X29707Y349752D02*Y347502D01*
X30457Y346752D01*
X27457D02*X28957D01*
X29707Y347502D01*
X33009Y349002D02*Y346752D01*
Y349002D02*X33759Y349752D01*
X35259D01*
X32259D02*X33009Y349002D01*
X37810Y346752D02*X40060D01*
X37060Y347502D02*X37810Y346752D01*
X37060Y349002D02*Y347502D01*
Y349002D02*X37810Y349752D01*
X39310D01*
X40060Y349002D01*
X37060Y348252D02*X40060D01*
Y349002D02*Y348252D01*
X46812Y352752D02*X47562Y352002D01*
X45312Y352752D02*X46812D01*
X44562Y352002D02*X45312Y352752D01*
X44562Y352002D02*Y347502D01*
X45312Y346752D01*
X46812Y349752D02*X47562Y349002D01*
X44562Y349752D02*X46812D01*
X45312Y346752D02*X46812D01*
X47562Y347502D01*
Y349002D02*Y347502D01*
X55063Y352752D02*Y346752D01*
X54313D02*X55063Y347502D01*
X52813Y346752D02*X54313D01*
X52063Y347502D02*X52813Y346752D01*
X52063Y349002D02*Y347502D01*
Y349002D02*X52813Y349752D01*
X54313D01*
X55063Y349002D01*
X56865Y351252D02*Y350502D01*
Y349002D02*Y346752D01*
X59116Y352002D02*Y346752D01*
Y352002D02*X59866Y352752D01*
X60616D01*
X58366Y349752D02*X59866D01*
X62868Y352002D02*Y346752D01*
Y352002D02*X63618Y352752D01*
X64368D01*
X62118Y349752D02*X63618D01*
X66619Y346752D02*X68869D01*
X65869Y347502D02*X66619Y346752D01*
X65869Y349002D02*Y347502D01*
Y349002D02*X66619Y349752D01*
X68119D01*
X68869Y349002D01*
X65869Y348252D02*X68869D01*
Y349002D02*Y348252D01*
X71421Y349002D02*Y346752D01*
Y349002D02*X72171Y349752D01*
X73671D01*
X70671D02*X71421Y349002D01*
X76222Y346752D02*X78472D01*
X75472Y347502D02*X76222Y346752D01*
X75472Y349002D02*Y347502D01*
Y349002D02*X76222Y349752D01*
X77722D01*
X78472Y349002D01*
X75472Y348252D02*X78472D01*
Y349002D02*Y348252D01*
X81024Y349002D02*Y346752D01*
Y349002D02*X81774Y349752D01*
X82524D01*
X83274Y349002D01*
Y346752D01*
X80274Y349752D02*X81024Y349002D01*
X85825Y352752D02*Y347502D01*
X86575Y346752D01*
X85075Y350502D02*X86575D01*
X93777Y352752D02*Y346752D01*
X93027D02*X93777Y347502D01*
X91527Y346752D02*X93027D01*
X90777Y347502D02*X91527Y346752D01*
X90777Y349002D02*Y347502D01*
Y349002D02*X91527Y349752D01*
X93027D01*
X93777Y349002D01*
X96328D02*Y346752D01*
Y349002D02*X97078Y349752D01*
X98578D01*
X95578D02*X96328Y349002D01*
X100380Y351252D02*Y350502D01*
Y349002D02*Y346752D01*
X101881Y352752D02*Y347502D01*
X102631Y346752D01*
X104133Y352752D02*Y347502D01*
X104883Y346752D01*
X109834D02*X112084D01*
X112834Y347502D01*
X112084Y348252D02*X112834Y347502D01*
X109834Y348252D02*X112084D01*
X109084Y349002D02*X109834Y348252D01*
X109084Y349002D02*X109834Y349752D01*
X112084D01*
X112834Y349002D01*
X109084Y347502D02*X109834Y346752D01*
X114636Y351252D02*Y350502D01*
Y349002D02*Y346752D01*
X116137Y349752D02*X119137D01*
X116137Y346752D02*X119137Y349752D01*
X116137Y346752D02*X119137D01*
X121689D02*X123939D01*
X120939Y347502D02*X121689Y346752D01*
X120939Y349002D02*Y347502D01*
Y349002D02*X121689Y349752D01*
X123189D01*
X123939Y349002D01*
X120939Y348252D02*X123939D01*
Y349002D02*Y348252D01*
X126490Y346752D02*X128740D01*
X129490Y347502D01*
X128740Y348252D02*X129490Y347502D01*
X126490Y348252D02*X128740D01*
X125740Y349002D02*X126490Y348252D01*
X125740Y349002D02*X126490Y349752D01*
X128740D01*
X129490Y349002D01*
X125740Y347502D02*X126490Y346752D01*
X133992Y349752D02*Y347502D01*
X134742Y346752D01*
X136242D01*
X136992Y347502D01*
Y349752D02*Y347502D01*
X139543Y346752D02*X141793D01*
X142543Y347502D01*
X141793Y348252D02*X142543Y347502D01*
X139543Y348252D02*X141793D01*
X138793Y349002D02*X139543Y348252D01*
X138793Y349002D02*X139543Y349752D01*
X141793D01*
X142543Y349002D01*
X138793Y347502D02*X139543Y346752D01*
X145095D02*X147345D01*
X144345Y347502D02*X145095Y346752D01*
X144345Y349002D02*Y347502D01*
Y349002D02*X145095Y349752D01*
X146595D01*
X147345Y349002D01*
X144345Y348252D02*X147345D01*
Y349002D02*Y348252D01*
X152146Y352752D02*Y346752D01*
X151396D02*X152146Y347502D01*
X149896Y346752D02*X151396D01*
X149146Y347502D02*X149896Y346752D01*
X149146Y349002D02*Y347502D01*
Y349002D02*X149896Y349752D01*
X151396D01*
X152146Y349002D01*
X156648Y351252D02*Y350502D01*
Y349002D02*Y346752D01*
X158899Y349002D02*Y346752D01*
Y349002D02*X159649Y349752D01*
X160399D01*
X161149Y349002D01*
Y346752D01*
X158149Y349752D02*X158899Y349002D01*
X166401Y352752D02*Y347502D01*
X167151Y346752D01*
X165651Y350502D02*X167151D01*
X168652Y352752D02*Y346752D01*
Y349002D02*X169402Y349752D01*
X170902D01*
X171652Y349002D01*
Y346752D01*
X173454Y351252D02*Y350502D01*
Y349002D02*Y346752D01*
X175705D02*X177955D01*
X178705Y347502D01*
X177955Y348252D02*X178705Y347502D01*
X175705Y348252D02*X177955D01*
X174955Y349002D02*X175705Y348252D01*
X174955Y349002D02*X175705Y349752D01*
X177955D01*
X178705Y349002D01*
X174955Y347502D02*X175705Y346752D01*
X183207Y352752D02*Y347502D01*
X183957Y346752D01*
X187708Y349752D02*X188458Y349002D01*
X186208Y349752D02*X187708D01*
X185458Y349002D02*X186208Y349752D01*
X185458Y349002D02*Y347502D01*
X186208Y346752D01*
X188458Y349752D02*Y347502D01*
X189208Y346752D01*
X186208D02*X187708D01*
X188458Y347502D01*
X191010Y349752D02*Y347502D01*
X191760Y346752D01*
X194010Y349752D02*Y345252D01*
X193260Y344502D02*X194010Y345252D01*
X191760Y344502D02*X193260D01*
X191010Y345252D02*X191760Y344502D01*
Y346752D02*X193260D01*
X194010Y347502D01*
X195811Y349002D02*Y347502D01*
Y349002D02*X196561Y349752D01*
X198061D01*
X198811Y349002D01*
Y347502D01*
X198061Y346752D02*X198811Y347502D01*
X196561Y346752D02*X198061D01*
X195811Y347502D02*X196561Y346752D01*
X200613Y349752D02*Y347502D01*
X201363Y346752D01*
X202863D01*
X203613Y347502D01*
Y349752D02*Y347502D01*
X206164Y352752D02*Y347502D01*
X206914Y346752D01*
X205414Y350502D02*X206914D01*
X208416Y345252D02*X209916Y346752D01*
X215167D02*X216667D01*
X215917Y352752D02*Y346752D01*
X214417Y351252D02*X215917Y352752D01*
X220719D02*X221469Y352002D01*
X219219Y352752D02*X220719D01*
X218469Y352002D02*X219219Y352752D01*
X218469Y352002D02*Y347502D01*
X219219Y346752D01*
X220719Y349752D02*X221469Y349002D01*
X218469Y349752D02*X220719D01*
X219219Y346752D02*X220719D01*
X221469Y347502D01*
Y349002D02*Y347502D01*
X224020Y346752D02*X225520D01*
X224770Y352752D02*Y346752D01*
X223270Y351252D02*X224770Y352752D01*
X230022D02*Y346752D01*
Y349002D02*X230772Y349752D01*
X232272D01*
X233022Y349002D01*
Y346752D01*
X234823Y349002D02*Y347502D01*
Y349002D02*X235573Y349752D01*
X237073D01*
X237823Y349002D01*
Y347502D01*
X237073Y346752D02*X237823Y347502D01*
X235573Y346752D02*X237073D01*
X234823Y347502D02*X235573Y346752D01*
X239625Y352752D02*Y347502D01*
X240375Y346752D01*
X242626D02*X244876D01*
X241876Y347502D02*X242626Y346752D01*
X241876Y349002D02*Y347502D01*
Y349002D02*X242626Y349752D01*
X244126D01*
X244876Y349002D01*
X241876Y348252D02*X244876D01*
Y349002D02*Y348252D01*
X247428Y346752D02*X249678D01*
X250428Y347502D01*
X249678Y348252D02*X250428Y347502D01*
X247428Y348252D02*X249678D01*
X246678Y349002D02*X247428Y348252D01*
X246678Y349002D02*X247428Y349752D01*
X249678D01*
X250428Y349002D01*
X246678Y347502D02*X247428Y346752D01*
X255679Y352752D02*Y347502D01*
X256429Y346752D01*
X254929Y350502D02*X256429D01*
X257931Y349002D02*Y347502D01*
Y349002D02*X258681Y349752D01*
X260181D01*
X260931Y349002D01*
Y347502D01*
X260181Y346752D02*X260931Y347502D01*
X258681Y346752D02*X260181D01*
X257931Y347502D02*X258681Y346752D01*
X263482Y352752D02*Y347502D01*
X264232Y346752D01*
X262732Y350502D02*X264232D01*
X267984Y349752D02*X268734Y349002D01*
X266484Y349752D02*X267984D01*
X265734Y349002D02*X266484Y349752D01*
X265734Y349002D02*Y347502D01*
X266484Y346752D01*
X268734Y349752D02*Y347502D01*
X269484Y346752D01*
X266484D02*X267984D01*
X268734Y347502D01*
X271285Y352752D02*Y347502D01*
X272035Y346752D01*
G54D62*X0Y234252D02*X253937D01*
X0D02*Y0D01*
X253937Y234252D02*Y0D01*
X0D02*X253937D01*
G54D65*X200000Y247752D02*Y241752D01*
Y247752D02*X202250Y245502D01*
X204500Y247752D01*
Y241752D01*
X208551Y244752D02*X209301Y244002D01*
X207051Y244752D02*X208551D01*
X206301Y244002D02*X207051Y244752D01*
X206301Y244002D02*Y242502D01*
X207051Y241752D01*
X209301Y244752D02*Y242502D01*
X210051Y241752D01*
X207051D02*X208551D01*
X209301Y242502D01*
X211853Y244752D02*X214853Y241752D01*
X211853D02*X214853Y244752D01*
X216654Y246252D02*Y245502D01*
Y244002D02*Y241752D01*
X218906Y244002D02*Y241752D01*
Y244002D02*X219656Y244752D01*
X220406D01*
X221156Y244002D01*
Y241752D01*
Y244002D02*X221906Y244752D01*
X222656D01*
X223406Y244002D01*
Y241752D01*
X218156Y244752D02*X218906Y244002D01*
X225207Y244752D02*Y242502D01*
X225957Y241752D01*
X227457D01*
X228207Y242502D01*
Y244752D02*Y242502D01*
X230759Y244002D02*Y241752D01*
Y244002D02*X231509Y244752D01*
X232259D01*
X233009Y244002D01*
Y241752D01*
Y244002D02*X233759Y244752D01*
X234509D01*
X235259Y244002D01*
Y241752D01*
X230009Y244752D02*X230759Y244002D01*
X240510Y247752D02*Y241752D01*
X242760Y247752D02*X243510Y247002D01*
Y242502D01*
X242760Y241752D02*X243510Y242502D01*
X239760Y241752D02*X242760D01*
X239760Y247752D02*X242760D01*
X245312Y246252D02*Y245502D01*
Y244002D02*Y241752D01*
X247563Y244002D02*Y241752D01*
Y244002D02*X248313Y244752D01*
X249063D01*
X249813Y244002D01*
Y241752D01*
Y244002D02*X250563Y244752D01*
X251313D01*
X252063Y244002D01*
Y241752D01*
X246813Y244752D02*X247563Y244002D01*
X254615Y241752D02*X256865D01*
X253865Y242502D02*X254615Y241752D01*
X253865Y244002D02*Y242502D01*
Y244002D02*X254615Y244752D01*
X256115D01*
X256865Y244002D01*
X253865Y243252D02*X256865D01*
Y244002D02*Y243252D01*
X259416Y244002D02*Y241752D01*
Y244002D02*X260166Y244752D01*
X260916D01*
X261666Y244002D01*
Y241752D01*
X258666Y244752D02*X259416Y244002D01*
X264218Y241752D02*X266468D01*
X267218Y242502D01*
X266468Y243252D02*X267218Y242502D01*
X264218Y243252D02*X266468D01*
X263468Y244002D02*X264218Y243252D01*
X263468Y244002D02*X264218Y244752D01*
X266468D01*
X267218Y244002D01*
X263468Y242502D02*X264218Y241752D01*
X269019Y246252D02*Y245502D01*
Y244002D02*Y241752D01*
X270521Y244002D02*Y242502D01*
Y244002D02*X271271Y244752D01*
X272771D01*
X273521Y244002D01*
Y242502D01*
X272771Y241752D02*X273521Y242502D01*
X271271Y241752D02*X272771D01*
X270521Y242502D02*X271271Y241752D01*
X276072Y244002D02*Y241752D01*
Y244002D02*X276822Y244752D01*
X277572D01*
X278322Y244002D01*
Y241752D01*
X275322Y244752D02*X276072Y244002D01*
X280874Y241752D02*X283124D01*
X283874Y242502D01*
X283124Y243252D02*X283874Y242502D01*
X280874Y243252D02*X283124D01*
X280124Y244002D02*X280874Y243252D01*
X280124Y244002D02*X280874Y244752D01*
X283124D01*
X283874Y244002D01*
X280124Y242502D02*X280874Y241752D01*
X285675Y245502D02*X286425D01*
X285675Y244002D02*X286425D01*
X290927Y247002D02*X291677Y247752D01*
X293927D01*
X294677Y247002D01*
Y245502D01*
X290927Y241752D02*X294677Y245502D01*
X290927Y241752D02*X294677D01*
X296478Y247752D02*X299478D01*
X296478D02*Y244752D01*
X297228Y245502D01*
X298728D01*
X299478Y244752D01*
Y242502D01*
X298728Y241752D02*X299478Y242502D01*
X297228Y241752D02*X298728D01*
X296478Y242502D02*X297228Y241752D01*
X301280Y247002D02*X302030Y247752D01*
X303530D01*
X304280Y247002D01*
Y242502D01*
X303530Y241752D02*X304280Y242502D01*
X302030Y241752D02*X303530D01*
X301280Y242502D02*X302030Y241752D01*
Y244752D02*X304280D01*
X306081Y241752D02*X309081Y244752D01*
Y247002D02*Y244752D01*
X308331Y247752D02*X309081Y247002D01*
X306831Y247752D02*X308331D01*
X306081Y247002D02*X306831Y247752D01*
X306081Y247002D02*Y245502D01*
X306831Y244752D01*
X309081D01*
X314333Y244002D02*Y241752D01*
Y244002D02*X315083Y244752D01*
X315833D01*
X316583Y244002D01*
Y241752D01*
Y244002D02*X317333Y244752D01*
X318083D01*
X318833Y244002D01*
Y241752D01*
X313583Y244752D02*X314333Y244002D01*
X320634Y246252D02*Y245502D01*
Y244002D02*Y241752D01*
X322136Y247752D02*Y242502D01*
X322886Y241752D01*
X325137D02*X327387D01*
X328137Y242502D01*
X327387Y243252D02*X328137Y242502D01*
X325137Y243252D02*X327387D01*
X324387Y244002D02*X325137Y243252D01*
X324387Y244002D02*X325137Y244752D01*
X327387D01*
X328137Y244002D01*
X324387Y242502D02*X325137Y241752D01*
X332639Y244752D02*Y242502D01*
X333389Y241752D01*
X334139D01*
X334889Y242502D01*
Y244752D02*Y242502D01*
X335639Y241752D01*
X336389D01*
X337139Y242502D01*
Y244752D02*Y242502D01*
X338940Y246252D02*Y245502D01*
Y244002D02*Y241752D01*
X343442Y247752D02*Y241752D01*
X342692D02*X343442Y242502D01*
X341192Y241752D02*X342692D01*
X340442Y242502D02*X341192Y241752D01*
X340442Y244002D02*Y242502D01*
Y244002D02*X341192Y244752D01*
X342692D01*
X343442Y244002D01*
X345993Y241752D02*X348243D01*
X345243Y242502D02*X345993Y241752D01*
X345243Y244002D02*Y242502D01*
Y244002D02*X345993Y244752D01*
X347493D01*
X348243Y244002D01*
X345243Y243252D02*X348243D01*
Y244002D02*Y243252D01*
X350045Y240252D02*X351545Y241752D01*
X356046Y247002D02*X356796Y247752D01*
X359046D01*
X359796Y247002D01*
Y245502D01*
X356046Y241752D02*X359796Y245502D01*
X356046Y241752D02*X359796D01*
X361598Y247002D02*X362348Y247752D01*
X363848D01*
X364598Y247002D01*
Y242502D01*
X363848Y241752D02*X364598Y242502D01*
X362348Y241752D02*X363848D01*
X361598Y242502D02*X362348Y241752D01*
Y244752D02*X364598D01*
X366399D02*X369399Y247752D01*
X366399Y244752D02*X370149D01*
X369399Y247752D02*Y241752D01*
X371951Y247002D02*X372701Y247752D01*
X374951D01*
X375701Y247002D01*
Y245502D01*
X371951Y241752D02*X375701Y245502D01*
X371951Y241752D02*X375701D01*
X380952Y244002D02*Y241752D01*
Y244002D02*X381702Y244752D01*
X382452D01*
X383202Y244002D01*
Y241752D01*
Y244002D02*X383952Y244752D01*
X384702D01*
X385452Y244002D01*
Y241752D01*
X380202Y244752D02*X380952Y244002D01*
X387254Y246252D02*Y245502D01*
Y244002D02*Y241752D01*
X388755Y247752D02*Y242502D01*
X389505Y241752D01*
X391757D02*X394007D01*
X394757Y242502D01*
X394007Y243252D02*X394757Y242502D01*
X391757Y243252D02*X394007D01*
X391007Y244002D02*X391757Y243252D01*
X391007Y244002D02*X391757Y244752D01*
X394007D01*
X394757Y244002D01*
X391007Y242502D02*X391757Y241752D01*
X399258Y247752D02*Y241752D01*
Y244002D02*X400008Y244752D01*
X401508D01*
X402258Y244002D01*
Y241752D01*
X404060Y246252D02*Y245502D01*
Y244002D02*Y241752D01*
X407811Y244752D02*X408561Y244002D01*
X406311Y244752D02*X407811D01*
X405561Y244002D02*X406311Y244752D01*
X405561Y244002D02*Y242502D01*
X406311Y241752D01*
X407811D01*
X408561Y242502D01*
X405561Y240252D02*X406311Y239502D01*
X407811D01*
X408561Y240252D01*
Y244752D02*Y240252D01*
X410363Y247752D02*Y241752D01*
Y244002D02*X411113Y244752D01*
X412613D01*
X413363Y244002D01*
Y241752D01*
X0Y-9500D02*X3000D01*
X3750Y-8750D01*
Y-7250D02*Y-8750D01*
X3000Y-6500D02*X3750Y-7250D01*
X750Y-6500D02*X3000D01*
X750Y-3500D02*Y-9500D01*
X0Y-3500D02*X3000D01*
X3750Y-4250D01*
Y-5750D01*
X3000Y-6500D02*X3750Y-5750D01*
X5551Y-7250D02*Y-8750D01*
Y-7250D02*X6301Y-6500D01*
X7801D01*
X8551Y-7250D01*
Y-8750D01*
X7801Y-9500D02*X8551Y-8750D01*
X6301Y-9500D02*X7801D01*
X5551Y-8750D02*X6301Y-9500D01*
X12603Y-6500D02*X13353Y-7250D01*
X11103Y-6500D02*X12603D01*
X10353Y-7250D02*X11103Y-6500D01*
X10353Y-7250D02*Y-8750D01*
X11103Y-9500D01*
X13353Y-6500D02*Y-8750D01*
X14103Y-9500D01*
X11103D02*X12603D01*
X13353Y-8750D01*
X16654Y-7250D02*Y-9500D01*
Y-7250D02*X17404Y-6500D01*
X18904D01*
X15904D02*X16654Y-7250D01*
X23706Y-3500D02*Y-9500D01*
X22956D02*X23706Y-8750D01*
X21456Y-9500D02*X22956D01*
X20706Y-8750D02*X21456Y-9500D01*
X20706Y-7250D02*Y-8750D01*
Y-7250D02*X21456Y-6500D01*
X22956D01*
X23706Y-7250D01*
X28207D02*Y-8750D01*
Y-7250D02*X28957Y-6500D01*
X30457D01*
X31207Y-7250D01*
Y-8750D01*
X30457Y-9500D02*X31207Y-8750D01*
X28957Y-9500D02*X30457D01*
X28207Y-8750D02*X28957Y-9500D01*
X33009Y-6500D02*Y-8750D01*
X33759Y-9500D01*
X35259D01*
X36009Y-8750D01*
Y-6500D02*Y-8750D01*
X38560Y-3500D02*Y-8750D01*
X39310Y-9500D01*
X37810Y-5750D02*X39310D01*
X40812Y-3500D02*Y-8750D01*
X41562Y-9500D01*
X43063Y-5000D02*Y-5750D01*
Y-7250D02*Y-9500D01*
X45315Y-7250D02*Y-9500D01*
Y-7250D02*X46065Y-6500D01*
X46815D01*
X47565Y-7250D01*
Y-9500D01*
X44565Y-6500D02*X45315Y-7250D01*
X50116Y-9500D02*X52366D01*
X49366Y-8750D02*X50116Y-9500D01*
X49366Y-7250D02*Y-8750D01*
Y-7250D02*X50116Y-6500D01*
X51616D01*
X52366Y-7250D01*
X49366Y-8000D02*X52366D01*
Y-7250D02*Y-8000D01*
X56868Y-5000D02*Y-5750D01*
Y-7250D02*Y-9500D01*
X59119D02*X61369D01*
X62119Y-8750D01*
X61369Y-8000D02*X62119Y-8750D01*
X59119Y-8000D02*X61369D01*
X58369Y-7250D02*X59119Y-8000D01*
X58369Y-7250D02*X59119Y-6500D01*
X61369D01*
X62119Y-7250D01*
X58369Y-8750D02*X59119Y-9500D01*
X67371Y-3500D02*Y-8750D01*
X68121Y-9500D01*
X66621Y-5750D02*X68121D01*
X69622Y-3500D02*Y-9500D01*
Y-7250D02*X70372Y-6500D01*
X71872D01*
X72622Y-7250D01*
Y-9500D01*
X75174D02*X77424D01*
X74424Y-8750D02*X75174Y-9500D01*
X74424Y-7250D02*Y-8750D01*
Y-7250D02*X75174Y-6500D01*
X76674D01*
X77424Y-7250D01*
X74424Y-8000D02*X77424D01*
Y-7250D02*Y-8000D01*
X82675Y-6500D02*X84925D01*
X81925Y-7250D02*X82675Y-6500D01*
X81925Y-7250D02*Y-8750D01*
X82675Y-9500D01*
X84925D01*
X87477D02*X89727D01*
X86727Y-8750D02*X87477Y-9500D01*
X86727Y-7250D02*Y-8750D01*
Y-7250D02*X87477Y-6500D01*
X88977D01*
X89727Y-7250D01*
X86727Y-8000D02*X89727D01*
Y-7250D02*Y-8000D01*
X92278Y-7250D02*Y-9500D01*
Y-7250D02*X93028Y-6500D01*
X93778D01*
X94528Y-7250D01*
Y-9500D01*
X91528Y-6500D02*X92278Y-7250D01*
X97080Y-3500D02*Y-8750D01*
X97830Y-9500D01*
X96330Y-5750D02*X97830D01*
X100081Y-9500D02*X102331D01*
X99331Y-8750D02*X100081Y-9500D01*
X99331Y-7250D02*Y-8750D01*
Y-7250D02*X100081Y-6500D01*
X101581D01*
X102331Y-7250D01*
X99331Y-8000D02*X102331D01*
Y-7250D02*Y-8000D01*
X104883Y-7250D02*Y-9500D01*
Y-7250D02*X105633Y-6500D01*
X107133D01*
X104133D02*X104883Y-7250D01*
X108934Y-3500D02*Y-8750D01*
X109684Y-9500D01*
X111186Y-5000D02*Y-5750D01*
Y-7250D02*Y-9500D01*
X113437Y-7250D02*Y-9500D01*
Y-7250D02*X114187Y-6500D01*
X114937D01*
X115687Y-7250D01*
Y-9500D01*
X112687Y-6500D02*X113437Y-7250D01*
X118239Y-9500D02*X120489D01*
X117489Y-8750D02*X118239Y-9500D01*
X117489Y-7250D02*Y-8750D01*
Y-7250D02*X118239Y-6500D01*
X119739D01*
X120489Y-7250D01*
X117489Y-8000D02*X120489D01*
Y-7250D02*Y-8000D01*
X124990Y-7250D02*Y-8750D01*
Y-7250D02*X125740Y-6500D01*
X127240D01*
X127990Y-7250D01*
Y-8750D01*
X127240Y-9500D02*X127990Y-8750D01*
X125740Y-9500D02*X127240D01*
X124990Y-8750D02*X125740Y-9500D01*
X130542Y-4250D02*Y-9500D01*
Y-4250D02*X131292Y-3500D01*
X132042D01*
X129792Y-6500D02*X131292D01*
X136993Y-3500D02*Y-8750D01*
X137743Y-9500D01*
X136243Y-5750D02*X137743D01*
X139245Y-3500D02*Y-9500D01*
Y-7250D02*X139995Y-6500D01*
X141495D01*
X142245Y-7250D01*
Y-9500D01*
X144046Y-5000D02*Y-5750D01*
Y-7250D02*Y-9500D01*
X146298D02*X148548D01*
X149298Y-8750D01*
X148548Y-8000D02*X149298Y-8750D01*
X146298Y-8000D02*X148548D01*
X145548Y-7250D02*X146298Y-8000D01*
X145548Y-7250D02*X146298Y-6500D01*
X148548D01*
X149298Y-7250D01*
X145548Y-8750D02*X146298Y-9500D01*
X154549D02*X156049D01*
X155299Y-3500D02*Y-9500D01*
X153799Y-5000D02*X155299Y-3500D01*
X157851Y-8750D02*X158601Y-9500D01*
X157851Y-4250D02*Y-8750D01*
Y-4250D02*X158601Y-3500D01*
X160101D01*
X160851Y-4250D01*
Y-8750D01*
X160101Y-9500D02*X160851Y-8750D01*
X158601Y-9500D02*X160101D01*
X157851Y-8000D02*X160851Y-5000D01*
X166102Y-7250D02*Y-9500D01*
Y-7250D02*X166852Y-6500D01*
X167602D01*
X168352Y-7250D01*
Y-9500D01*
Y-7250D02*X169102Y-6500D01*
X169852D01*
X170602Y-7250D01*
Y-9500D01*
X165352Y-6500D02*X166102Y-7250D01*
X172404Y-5000D02*Y-5750D01*
Y-7250D02*Y-9500D01*
X173905Y-3500D02*Y-8750D01*
X174655Y-9500D01*
X179607Y-7250D02*Y-9500D01*
Y-7250D02*X180357Y-6500D01*
X181857D01*
X178857D02*X179607Y-7250D01*
X184408Y-9500D02*X186658D01*
X183658Y-8750D02*X184408Y-9500D01*
X183658Y-7250D02*Y-8750D01*
Y-7250D02*X184408Y-6500D01*
X185908D01*
X186658Y-7250D01*
X183658Y-8000D02*X186658D01*
Y-7250D02*Y-8000D01*
X189210Y-6500D02*X191460D01*
X188460Y-7250D02*X189210Y-6500D01*
X188460Y-7250D02*Y-8750D01*
X189210Y-9500D01*
X191460D01*
X194011Y-3500D02*Y-8750D01*
X194761Y-9500D01*
X193261Y-5750D02*X194761D01*
X198513Y-6500D02*X199263Y-7250D01*
X197013Y-6500D02*X198513D01*
X196263Y-7250D02*X197013Y-6500D01*
X196263Y-7250D02*Y-8750D01*
X197013Y-9500D01*
X199263Y-6500D02*Y-8750D01*
X200013Y-9500D01*
X197013D02*X198513D01*
X199263Y-8750D01*
X202564Y-7250D02*Y-9500D01*
Y-7250D02*X203314Y-6500D01*
X204064D01*
X204814Y-7250D01*
Y-9500D01*
X201814Y-6500D02*X202564Y-7250D01*
X208866Y-6500D02*X209616Y-7250D01*
X207366Y-6500D02*X208866D01*
X206616Y-7250D02*X207366Y-6500D01*
X206616Y-7250D02*Y-8750D01*
X207366Y-9500D01*
X208866D01*
X209616Y-8750D01*
X206616Y-11000D02*X207366Y-11750D01*
X208866D01*
X209616Y-11000D01*
Y-6500D02*Y-11000D01*
X211417Y-3500D02*Y-8750D01*
X212167Y-9500D01*
X214419D02*X216669D01*
X213669Y-8750D02*X214419Y-9500D01*
X213669Y-7250D02*Y-8750D01*
Y-7250D02*X214419Y-6500D01*
X215919D01*
X216669Y-7250D01*
X213669Y-8000D02*X216669D01*
Y-7250D02*Y-8000D01*
X221170Y-6500D02*X224170D01*
X228672Y-8750D02*X229422Y-9500D01*
X228672Y-4250D02*Y-8750D01*
Y-4250D02*X229422Y-3500D01*
X230922D01*
X231672Y-4250D01*
Y-8750D01*
X230922Y-9500D02*X231672Y-8750D01*
X229422Y-9500D02*X230922D01*
X228672Y-8000D02*X231672Y-5000D01*
X233473Y-11000D02*X234973Y-9500D01*
X236775Y-8750D02*X237525Y-9500D01*
X236775Y-4250D02*Y-8750D01*
Y-4250D02*X237525Y-3500D01*
X239025D01*
X239775Y-4250D01*
Y-8750D01*
X239025Y-9500D02*X239775Y-8750D01*
X237525Y-9500D02*X239025D01*
X236775Y-8000D02*X239775Y-5000D01*
X245026Y-3500D02*Y-8750D01*
X245776Y-9500D01*
X244276Y-5750D02*X245776D01*
X247278Y-7250D02*Y-8750D01*
Y-7250D02*X248028Y-6500D01*
X249528D01*
X250278Y-7250D01*
Y-8750D01*
X249528Y-9500D02*X250278Y-8750D01*
X248028Y-9500D02*X249528D01*
X247278Y-8750D02*X248028Y-9500D01*
X254779Y-4250D02*X255529Y-3500D01*
X257779D01*
X258529Y-4250D01*
Y-5750D01*
X254779Y-9500D02*X258529Y-5750D01*
X254779Y-9500D02*X258529D01*
X260331Y-3500D02*X263331D01*
X260331D02*Y-6500D01*
X261081Y-5750D01*
X262581D01*
X263331Y-6500D01*
Y-8750D01*
X262581Y-9500D02*X263331Y-8750D01*
X261081Y-9500D02*X262581D01*
X260331Y-8750D02*X261081Y-9500D01*
X265132Y-4250D02*X265882Y-3500D01*
X267382D01*
X268132Y-4250D01*
Y-8750D01*
X267382Y-9500D02*X268132Y-8750D01*
X265882Y-9500D02*X267382D01*
X265132Y-8750D02*X265882Y-9500D01*
Y-6500D02*X268132D01*
X269934Y-9500D02*X272934Y-6500D01*
Y-4250D02*Y-6500D01*
X272184Y-3500D02*X272934Y-4250D01*
X270684Y-3500D02*X272184D01*
X269934Y-4250D02*X270684Y-3500D01*
X269934Y-4250D02*Y-5750D01*
X270684Y-6500D01*
X272934D01*
X274735Y-11000D02*X276235Y-9500D01*
X278037Y-4250D02*X278787Y-3500D01*
X281037D01*
X281787Y-4250D01*
Y-5750D01*
X278037Y-9500D02*X281787Y-5750D01*
X278037Y-9500D02*X281787D01*
X283588Y-4250D02*X284338Y-3500D01*
X285838D01*
X286588Y-4250D01*
Y-8750D01*
X285838Y-9500D02*X286588Y-8750D01*
X284338Y-9500D02*X285838D01*
X283588Y-8750D02*X284338Y-9500D01*
Y-6500D02*X286588D01*
X288390D02*X291390Y-3500D01*
X288390Y-6500D02*X292140D01*
X291390Y-3500D02*Y-9500D01*
X293941Y-4250D02*X294691Y-3500D01*
X296941D01*
X297691Y-4250D01*
Y-5750D01*
X293941Y-9500D02*X297691Y-5750D01*
X293941Y-9500D02*X297691D01*
X302943Y-7250D02*Y-9500D01*
Y-7250D02*X303693Y-6500D01*
X304443D01*
X305193Y-7250D01*
Y-9500D01*
Y-7250D02*X305943Y-6500D01*
X306693D01*
X307443Y-7250D01*
Y-9500D01*
X302193Y-6500D02*X302943Y-7250D01*
X309244Y-5000D02*Y-5750D01*
Y-7250D02*Y-9500D01*
X310746Y-3500D02*Y-8750D01*
X311496Y-9500D01*
X313747D02*X315997D01*
X316747Y-8750D01*
X315997Y-8000D02*X316747Y-8750D01*
X313747Y-8000D02*X315997D01*
X312997Y-7250D02*X313747Y-8000D01*
X312997Y-7250D02*X313747Y-6500D01*
X315997D01*
X316747Y-7250D01*
X312997Y-8750D02*X313747Y-9500D01*
X200750Y262752D02*Y256752D01*
X203000Y262752D02*X203750Y262002D01*
Y257502D01*
X203000Y256752D02*X203750Y257502D01*
X200000Y256752D02*X203000D01*
X200000Y262752D02*X203000D01*
X207801Y259752D02*X208551Y259002D01*
X206301Y259752D02*X207801D01*
X205551Y259002D02*X206301Y259752D01*
X205551Y259002D02*Y257502D01*
X206301Y256752D01*
X208551Y259752D02*Y257502D01*
X209301Y256752D01*
X206301D02*X207801D01*
X208551Y257502D01*
X211853Y262752D02*Y257502D01*
X212603Y256752D01*
X211103Y260502D02*X212603D01*
X214854Y256752D02*X217104D01*
X214104Y257502D02*X214854Y256752D01*
X214104Y259002D02*Y257502D01*
Y259002D02*X214854Y259752D01*
X216354D01*
X217104Y259002D01*
X214104Y258252D02*X217104D01*
Y259002D02*Y258252D01*
X218906Y260502D02*X219656D01*
X218906Y259002D02*X219656D01*
X224157Y262752D02*Y256752D01*
Y262752D02*X226407Y260502D01*
X228657Y262752D01*
Y256752D01*
X230459Y259002D02*Y257502D01*
Y259002D02*X231209Y259752D01*
X232709D01*
X233459Y259002D01*
Y257502D01*
X232709Y256752D02*X233459Y257502D01*
X231209Y256752D02*X232709D01*
X230459Y257502D02*X231209Y256752D01*
X236010Y259002D02*Y256752D01*
Y259002D02*X236760Y259752D01*
X237510D01*
X238260Y259002D01*
Y256752D01*
X235260Y259752D02*X236010Y259002D01*
X243512Y256752D02*X245012D01*
X244262Y262752D02*Y256752D01*
X242762Y261252D02*X244262Y262752D01*
X246813Y257502D02*X247563Y256752D01*
X246813Y259002D02*Y257502D01*
Y259002D02*X247563Y259752D01*
X249063D01*
X249813Y259002D01*
Y257502D01*
X249063Y256752D02*X249813Y257502D01*
X247563Y256752D02*X249063D01*
X246813Y260502D02*X247563Y259752D01*
X246813Y262002D02*Y260502D01*
Y262002D02*X247563Y262752D01*
X249063D01*
X249813Y262002D01*
Y260502D01*
X249063Y259752D02*X249813Y260502D01*
X254315Y262002D02*Y257502D01*
Y262002D02*X255065Y262752D01*
X256565D01*
X257315Y262002D01*
Y257502D01*
X256565Y256752D02*X257315Y257502D01*
X255065Y256752D02*X256565D01*
X254315Y257502D02*X255065Y256752D01*
X259866Y259752D02*X262116D01*
X259116Y259002D02*X259866Y259752D01*
X259116Y259002D02*Y257502D01*
X259866Y256752D01*
X262116D01*
X264668Y262752D02*Y257502D01*
X265418Y256752D01*
X263918Y260502D02*X265418D01*
X269619Y262002D02*X270369Y262752D01*
X272619D01*
X273369Y262002D01*
Y260502D01*
X269619Y256752D02*X273369Y260502D01*
X269619Y256752D02*X273369D01*
X275171Y257502D02*X275921Y256752D01*
X275171Y262002D02*Y257502D01*
Y262002D02*X275921Y262752D01*
X277421D01*
X278171Y262002D01*
Y257502D01*
X277421Y256752D02*X278171Y257502D01*
X275921Y256752D02*X277421D01*
X275171Y258252D02*X278171Y261252D01*
X280722Y256752D02*X282222D01*
X281472Y262752D02*Y256752D01*
X279972Y261252D02*X281472Y262752D01*
X284024Y257502D02*X284774Y256752D01*
X284024Y262002D02*Y257502D01*
Y262002D02*X284774Y262752D01*
X286274D01*
X287024Y262002D01*
Y257502D01*
X286274Y256752D02*X287024Y257502D01*
X284774Y256752D02*X286274D01*
X284024Y258252D02*X287024Y261252D01*
X291525Y262002D02*X292275Y262752D01*
X294525D01*
X295275Y262002D01*
Y260502D01*
X291525Y256752D02*X295275Y260502D01*
X291525Y256752D02*X295275D01*
X297077Y257502D02*X297827Y256752D01*
X297077Y262002D02*Y257502D01*
Y262002D02*X297827Y262752D01*
X299327D01*
X300077Y262002D01*
Y257502D01*
X299327Y256752D02*X300077Y257502D01*
X297827Y256752D02*X299327D01*
X297077Y258252D02*X300077Y261252D01*
X301878Y260502D02*X302628D01*
X301878Y259002D02*X302628D01*
X304430Y257502D02*X305180Y256752D01*
X304430Y262002D02*Y257502D01*
Y262002D02*X305180Y262752D01*
X306680D01*
X307430Y262002D01*
Y257502D01*
X306680Y256752D02*X307430Y257502D01*
X305180Y256752D02*X306680D01*
X304430Y258252D02*X307430Y261252D01*
X309231Y262002D02*X309981Y262752D01*
X312231D01*
X312981Y262002D01*
Y260502D01*
X309231Y256752D02*X312981Y260502D01*
X309231Y256752D02*X312981D01*
X314783Y260502D02*X315533D01*
X314783Y259002D02*X315533D01*
X317334Y257502D02*X318084Y256752D01*
X317334Y262002D02*Y257502D01*
Y262002D02*X318084Y262752D01*
X319584D01*
X320334Y262002D01*
Y257502D01*
X319584Y256752D02*X320334Y257502D01*
X318084Y256752D02*X319584D01*
X317334Y258252D02*X320334Y261252D01*
X322136Y256752D02*X325886Y260502D01*
Y262752D02*Y260502D01*
X322136Y262752D02*X325886D01*
X333387D02*X334137Y262002D01*
X331137Y262752D02*X333387D01*
X330387Y262002D02*X331137Y262752D01*
X330387Y262002D02*Y257502D01*
X331137Y256752D01*
X333387D01*
X334137Y257502D01*
Y259002D02*Y257502D01*
X333387Y259752D02*X334137Y259002D01*
X331887Y259752D02*X333387D01*
X335939Y262752D02*Y256752D01*
Y262752D02*X338189Y260502D01*
X340439Y262752D01*
Y256752D01*
X342240Y262752D02*X345240D01*
X343740D02*Y256752D01*
X349742Y262752D02*Y257502D01*
X350492Y256752D01*
X351992D01*
X352742Y257502D01*
Y262752D02*Y257502D01*
X354543Y262752D02*X357543D01*
X356043D02*Y256752D01*
X360095D02*X362345D01*
X359345Y257502D02*X360095Y256752D01*
X359345Y262002D02*Y257502D01*
Y262002D02*X360095Y262752D01*
X362345D01*
X200000Y277002D02*Y271752D01*
Y277002D02*X200750Y277752D01*
X203000D01*
X203750Y277002D01*
Y271752D01*
X200000Y274752D02*X203750D01*
X205551D02*Y272502D01*
X206301Y271752D01*
X207801D01*
X208551Y272502D01*
Y274752D02*Y272502D01*
X211103Y277752D02*Y272502D01*
X211853Y271752D01*
X210353Y275502D02*X211853D01*
X213354Y277752D02*Y271752D01*
Y274002D02*X214104Y274752D01*
X215604D01*
X216354Y274002D01*
Y271752D01*
X218156Y274002D02*Y272502D01*
Y274002D02*X218906Y274752D01*
X220406D01*
X221156Y274002D01*
Y272502D01*
X220406Y271752D02*X221156Y272502D01*
X218906Y271752D02*X220406D01*
X218156Y272502D02*X218906Y271752D01*
X223707Y274002D02*Y271752D01*
Y274002D02*X224457Y274752D01*
X225957D01*
X222957D02*X223707Y274002D01*
X227759Y275502D02*X228509D01*
X227759Y274002D02*X228509D01*
X233010Y277002D02*Y271752D01*
Y277002D02*X233760Y277752D01*
X236010D01*
X236760Y277002D01*
Y271752D01*
X233010Y274752D02*X236760D01*
X238562Y277752D02*Y272502D01*
X239312Y271752D01*
X241563D02*X243813D01*
X240813Y272502D02*X241563Y271752D01*
X240813Y274002D02*Y272502D01*
Y274002D02*X241563Y274752D01*
X243063D01*
X243813Y274002D01*
X240813Y273252D02*X243813D01*
Y274002D02*Y273252D01*
X245615Y274752D02*X248615Y271752D01*
X245615D02*X248615Y274752D01*
X253116Y277752D02*Y271752D01*
Y277752D02*X256116D01*
X253116Y274752D02*X255366D01*
X257918Y274002D02*Y272502D01*
Y274002D02*X258668Y274752D01*
X260168D01*
X260918Y274002D01*
Y272502D01*
X260168Y271752D02*X260918Y272502D01*
X258668Y271752D02*X260168D01*
X257918Y272502D02*X258668Y271752D01*
X263469Y274002D02*Y271752D01*
Y274002D02*X264219Y274752D01*
X265719D01*
X262719D02*X263469Y274002D01*
X267521Y274752D02*Y272502D01*
X268271Y271752D01*
X269021D01*
X269771Y272502D01*
Y274752D02*Y272502D01*
X270521Y271752D01*
X271271D01*
X272021Y272502D01*
Y274752D02*Y272502D01*
X276072Y274752D02*X276822Y274002D01*
X274572Y274752D02*X276072D01*
X273822Y274002D02*X274572Y274752D01*
X273822Y274002D02*Y272502D01*
X274572Y271752D01*
X276822Y274752D02*Y272502D01*
X277572Y271752D01*
X274572D02*X276072D01*
X276822Y272502D01*
X280124Y274002D02*Y271752D01*
Y274002D02*X280874Y274752D01*
X282374D01*
X279374D02*X280124Y274002D01*
X287175Y277752D02*Y271752D01*
X286425D02*X287175Y272502D01*
X284925Y271752D02*X286425D01*
X284175Y272502D02*X284925Y271752D01*
X284175Y274002D02*Y272502D01*
Y274002D02*X284925Y274752D01*
X286425D01*
X287175Y274002D01*
X200000Y292752D02*X203000D01*
X201500D02*Y286752D01*
X204801Y291252D02*Y290502D01*
Y289002D02*Y286752D01*
X207053Y292752D02*Y287502D01*
X207803Y286752D01*
X206303Y290502D02*X207803D01*
X209304Y292752D02*Y287502D01*
X210054Y286752D01*
X212306D02*X214556D01*
X211556Y287502D02*X212306Y286752D01*
X211556Y289002D02*Y287502D01*
Y289002D02*X212306Y289752D01*
X213806D01*
X214556Y289002D01*
X211556Y288252D02*X214556D01*
Y289002D02*Y288252D01*
X216357Y290502D02*X217107D01*
X216357Y289002D02*X217107D01*
X221609Y287502D02*X222359Y286752D01*
X221609Y292002D02*X222359Y292752D01*
X221609Y292002D02*Y287502D01*
X224160Y289752D02*Y287502D01*
X224910Y286752D01*
X226410D01*
X227160Y287502D01*
Y289752D02*Y287502D01*
X229712Y289002D02*Y286752D01*
Y289002D02*X230462Y289752D01*
X231212D01*
X231962Y289002D01*
Y286752D01*
X228962Y289752D02*X229712Y289002D01*
X233763Y292752D02*Y286752D01*
Y289002D02*X236013Y286752D01*
X233763Y289002D02*X235263Y290502D01*
X238565Y289002D02*Y286752D01*
Y289002D02*X239315Y289752D01*
X240065D01*
X240815Y289002D01*
Y286752D01*
X237815Y289752D02*X238565Y289002D01*
X242616D02*Y287502D01*
Y289002D02*X243366Y289752D01*
X244866D01*
X245616Y289002D01*
Y287502D01*
X244866Y286752D02*X245616Y287502D01*
X243366Y286752D02*X244866D01*
X242616Y287502D02*X243366Y286752D01*
X247418Y289752D02*Y287502D01*
X248168Y286752D01*
X248918D01*
X249668Y287502D01*
Y289752D02*Y287502D01*
X250418Y286752D01*
X251168D01*
X251918Y287502D01*
Y289752D02*Y287502D01*
X254469Y289002D02*Y286752D01*
Y289002D02*X255219Y289752D01*
X255969D01*
X256719Y289002D01*
Y286752D01*
X253719Y289752D02*X254469Y289002D01*
X258521Y292752D02*X259271Y292002D01*
Y287502D01*
X258521Y286752D02*X259271Y287502D01*
X263772Y289752D02*X266772D01*
X271274Y292752D02*Y286752D01*
Y292752D02*X274274D01*
X271274Y289752D02*X273524D01*
X278325D02*X279075Y289002D01*
X276825Y289752D02*X278325D01*
X276075Y289002D02*X276825Y289752D01*
X276075Y289002D02*Y287502D01*
X276825Y286752D01*
X279075Y289752D02*Y287502D01*
X279825Y286752D01*
X276825D02*X278325D01*
X279075Y287502D01*
X281627Y292752D02*Y286752D01*
Y287502D02*X282377Y286752D01*
X283877D01*
X284627Y287502D01*
Y289002D02*Y287502D01*
X283877Y289752D02*X284627Y289002D01*
X282377Y289752D02*X283877D01*
X281627Y289002D02*X282377Y289752D01*
X287178Y289002D02*Y286752D01*
Y289002D02*X287928Y289752D01*
X289428D01*
X286428D02*X287178Y289002D01*
X291230Y291252D02*Y290502D01*
Y289002D02*Y286752D01*
X293481Y289752D02*X295731D01*
X292731Y289002D02*X293481Y289752D01*
X292731Y289002D02*Y287502D01*
X293481Y286752D01*
X295731D01*
X299783Y289752D02*X300533Y289002D01*
X298283Y289752D02*X299783D01*
X297533Y289002D02*X298283Y289752D01*
X297533Y289002D02*Y287502D01*
X298283Y286752D01*
X300533Y289752D02*Y287502D01*
X301283Y286752D01*
X298283D02*X299783D01*
X300533Y287502D01*
X303834Y292752D02*Y287502D01*
X304584Y286752D01*
X303084Y290502D02*X304584D01*
X306086Y291252D02*Y290502D01*
Y289002D02*Y286752D01*
X307587Y289002D02*Y287502D01*
Y289002D02*X308337Y289752D01*
X309837D01*
X310587Y289002D01*
Y287502D01*
X309837Y286752D02*X310587Y287502D01*
X308337Y286752D02*X309837D01*
X307587Y287502D02*X308337Y286752D01*
X313139Y289002D02*Y286752D01*
Y289002D02*X313889Y289752D01*
X314639D01*
X315389Y289002D01*
Y286752D01*
X312389Y289752D02*X313139Y289002D01*
X320640Y292752D02*Y286752D01*
X322890Y292752D02*X323640Y292002D01*
Y287502D01*
X322890Y286752D02*X323640Y287502D01*
X319890Y286752D02*X322890D01*
X319890Y292752D02*X322890D01*
X326192Y289002D02*Y286752D01*
Y289002D02*X326942Y289752D01*
X328442D01*
X325442D02*X326192Y289002D01*
X332493Y289752D02*X333243Y289002D01*
X330993Y289752D02*X332493D01*
X330243Y289002D02*X330993Y289752D01*
X330243Y289002D02*Y287502D01*
X330993Y286752D01*
X333243Y289752D02*Y287502D01*
X333993Y286752D01*
X330993D02*X332493D01*
X333243Y287502D01*
X335795Y289752D02*Y287502D01*
X336545Y286752D01*
X337295D01*
X338045Y287502D01*
Y289752D02*Y287502D01*
X338795Y286752D01*
X339545D01*
X340295Y287502D01*
Y289752D02*Y287502D01*
X342096Y291252D02*Y290502D01*
Y289002D02*Y286752D01*
X344348Y289002D02*Y286752D01*
Y289002D02*X345098Y289752D01*
X345848D01*
X346598Y289002D01*
Y286752D01*
X343598Y289752D02*X344348Y289002D01*
X350649Y289752D02*X351399Y289002D01*
X349149Y289752D02*X350649D01*
X348399Y289002D02*X349149Y289752D01*
X348399Y289002D02*Y287502D01*
X349149Y286752D01*
X350649D01*
X351399Y287502D01*
X348399Y285252D02*X349149Y284502D01*
X350649D01*
X351399Y285252D01*
Y289752D02*Y285252D01*
M02*
