G04 start of page 17 for group -4015 idx -4015 *
G04 Title: (unknown), toppaste *
G04 Creator: pcb 20100929 *
G04 CreationDate: Mon 18 Oct 2010 20:02:07 GMT UTC *
G04 For: alex *
G04 Format: Gerber/RS-274X *
G04 PCB-Dimensions: 253937 234252 *
G04 PCB-Coordinate-Origin: lower left *
%MOIN*%
%FSLAX25Y25*%
%LNFRONTPASTE*%
%ADD11C,0.0200*%
%ADD24R,0.0283X0.0283*%
%ADD25R,0.0512X0.0512*%
%ADD26R,0.0240X0.0240*%
%ADD27R,0.0551X0.0551*%
%ADD28R,0.0370X0.0370*%
%ADD29R,0.0610X0.0610*%
%ADD30R,0.0600X0.0600*%
%ADD31R,0.0130X0.0130*%
%ADD32R,0.0530X0.0530*%
%ADD33R,0.0200X0.0200*%
G54D11*G36*
X233064Y231147D02*X237527Y226700D01*
X233358Y222516D01*
X228895Y226963D01*
X233064Y231147D01*
G37*
G36*
X242816Y221404D02*X247270Y216949D01*
X243094Y212773D01*
X238639Y217227D01*
X242816Y221404D01*
G37*
G36*
X236969Y223629D02*X239504Y226164D01*
X242009Y223658D01*
X239475Y221124D01*
X236969Y223629D01*
G37*
G36*
X19997Y13905D02*X24452Y9449D01*
X20276Y5273D01*
X15820Y9728D01*
X19997Y13905D01*
G37*
G36*
X10254Y23648D02*X14708Y19193D01*
X10532Y15017D01*
X6077Y19471D01*
X10254Y23648D01*
G37*
G36*
X11339Y12762D02*X13873Y15296D01*
X16378Y12790D01*
X13845Y10257D01*
X11339Y12762D01*
G37*
G36*
X6848Y215355D02*X11303Y219810D01*
X15479Y215633D01*
X11025Y211179D01*
X6848Y215355D01*
G37*
G36*
X16592Y225107D02*X21054Y229553D01*
X25223Y225369D01*
X20761Y220923D01*
X16592Y225107D01*
G37*
G36*
X14381Y224291D02*X16870Y221714D01*
X14322Y219253D01*
X11833Y221830D01*
X14381Y224291D01*
G37*
G36*
X238654Y19416D02*X243117Y23863D01*
X247286Y19679D01*
X242823Y15232D01*
X238654Y19416D01*
G37*
G36*
X228911Y9673D02*X233373Y14119D01*
X237542Y9935D01*
X233080Y5489D01*
X228911Y9673D01*
G37*
G36*
X239812Y15789D02*X242301Y13212D01*
X239753Y10751D01*
X237264Y13328D01*
X239812Y15789D01*
G37*
G54D25*X153150Y164174D02*Y158664D01*
X164960Y164174D02*Y158664D01*
X153150Y152755D02*Y147245D01*
X164960Y152755D02*Y147245D01*
X186616Y158661D02*Y153151D01*
X198426Y158661D02*Y153151D01*
X206300Y167716D02*Y162206D01*
X218110Y167716D02*Y162206D01*
X206301Y156300D02*Y150790D01*
X218111Y156300D02*Y150790D01*
X206300Y144487D02*Y138977D01*
X218110Y144487D02*Y138977D01*
G54D33*X56973Y92540D02*X63473D01*
X56973Y87540D02*X63473D01*
X56973Y82540D02*X63473D01*
X56973Y77540D02*X63473D01*
X77473D02*X83973D01*
X77473Y82540D02*X83973D01*
X77473Y87540D02*X83973D01*
X77473Y92540D02*X83973D01*
G54D25*X154724Y74805D02*Y72443D01*
X142914Y74805D02*Y72443D01*
X154724Y92521D02*Y90159D01*
X142914Y92521D02*Y90159D01*
G54D24*X67484Y101272D02*Y100304D01*
X61650Y101272D02*Y100304D01*
X86221Y149787D02*Y148819D01*
X92055Y149787D02*Y148819D01*
X51091Y77399D02*X52059D01*
X51091Y83233D02*X52059D01*
X93933Y77256D02*Y76288D01*
X99767Y77256D02*Y76288D01*
X179528Y210024D02*Y209056D01*
X173694Y210024D02*Y209056D01*
X137401Y48033D02*Y47065D01*
X131567Y48033D02*Y47065D01*
G54D25*X140944Y112991D02*X143306D01*
X140944Y101181D02*X143306D01*
X53324Y179426D02*X54110D01*
X53324Y186512D02*X54110D01*
G54D24*X68344Y200879D02*Y199911D01*
X74178Y200879D02*Y199911D01*
G54D25*X185434Y174410D02*Y173624D01*
X192520Y174410D02*Y173624D01*
X121654Y66142D02*Y63780D01*
X133464Y66142D02*Y63780D01*
X121655Y90945D02*Y88583D01*
X133465Y90945D02*Y88583D01*
X121655Y82677D02*Y80315D01*
X133465Y82677D02*Y80315D01*
G54D31*X100119Y169684D02*X104725D01*
X100119Y167125D02*X104725D01*
X100119Y164566D02*X104725D01*
X100119Y162007D02*X104725D01*
X100119Y159448D02*X104725D01*
X100119Y156889D02*X104725D01*
X100119Y154330D02*X104725D01*
X100119Y151772D02*X104725D01*
X100119Y149213D02*X104725D01*
X100119Y146654D02*X104725D01*
X100119Y144095D02*X104725D01*
X100119Y141536D02*X104725D01*
X100119Y138977D02*X104725D01*
X100119Y136418D02*X104725D01*
X123347D02*X127953D01*
X123347Y138977D02*X127953D01*
X123347Y141536D02*X127953D01*
X123347Y144095D02*X127953D01*
X123347Y146654D02*X127953D01*
X123347Y149213D02*X127953D01*
X123347Y151772D02*X127953D01*
X123347Y154330D02*X127953D01*
X123347Y156889D02*X127953D01*
X123347Y159448D02*X127953D01*
X123347Y162007D02*X127953D01*
X123347Y164566D02*X127953D01*
X123347Y167125D02*X127953D01*
X123347Y169684D02*X127953D01*
G54D25*X150001Y112991D02*X152363D01*
X150001Y101181D02*X152363D01*
X121655Y74410D02*Y72048D01*
X133465Y74410D02*Y72048D01*
G54D27*X58267Y40551D02*X61023D01*
X58267Y58268D02*X61023D01*
X94094Y40551D02*X96850D01*
X94094Y58268D02*X96850D01*
G54D24*X88887Y84807D02*X89855D01*
X88887Y78973D02*X89855D01*
X88886Y94256D02*X89854D01*
X88886Y88422D02*X89854D01*
X108800Y183953D02*Y182985D01*
X114634Y183953D02*Y182985D01*
X137401Y54906D02*Y53938D01*
X131567Y54906D02*Y53938D01*
G54D28*X173623Y103563D02*Y101163D01*
X167523Y103563D02*Y101163D01*
X161423Y103563D02*Y101163D01*
G54D29*X164523Y90163D02*X170523D01*
G54D25*X132676Y112991D02*X135038D01*
X132676Y101181D02*X135038D01*
X154724Y65356D02*Y62994D01*
X142914Y65356D02*Y62994D01*
G54D26*X81103Y24422D02*Y22822D01*
X85003Y24422D02*Y22822D01*
X88903Y24422D02*Y22822D01*
Y32622D02*Y31022D01*
X85003Y32622D02*Y31022D01*
X81103Y32622D02*Y31022D01*
G54D32*X97219Y95564D02*X100419D01*
X97219Y83964D02*X100419D01*
G54D25*X124410Y112992D02*X126772D01*
X124410Y101182D02*X126772D01*
X144487Y38582D02*Y37796D01*
X137401Y38582D02*Y37796D01*
G54D24*X131103Y37080D02*X132071D01*
X131103Y42914D02*X132071D01*
G54D26*X187758Y88122D02*Y86522D01*
X183858Y88122D02*Y86522D01*
X179958Y88122D02*Y86522D01*
Y79922D02*Y78322D01*
X183858Y79922D02*Y78322D01*
X187758Y79922D02*Y78322D01*
G54D24*X163296Y195115D02*X164264D01*
X163296Y200949D02*X164264D01*
G54D25*X154724Y83072D02*Y80710D01*
X142914Y83072D02*Y80710D01*
G54D30*X182577Y200087D02*Y195851D01*
X170857Y200087D02*Y195851D01*
G54D26*X147245Y180328D02*Y178728D01*
X151145Y180328D02*Y178728D01*
X155045Y180328D02*Y178728D01*
Y188528D02*Y186928D01*
X151145Y188528D02*Y186928D01*
X147245Y188528D02*Y186928D01*
G54D24*X193773Y182465D02*Y181497D01*
X199607Y182465D02*Y181497D01*
M02*
