G04 start of page 12 for group -4063 idx -4063 *
G04 Title: (unknown), componentmask *
G04 Creator: pcb 20100929 *
G04 CreationDate: Mon 18 Oct 2010 20:02:07 GMT UTC *
G04 For: alex *
G04 Format: Gerber/RS-274X *
G04 PCB-Dimensions: 253937 234252 *
G04 PCB-Coordinate-Origin: lower left *
%MOIN*%
%FSLAX25Y25*%
%LNFRONTMASK*%
%ADD11C,0.0200*%
%ADD38C,0.1280*%
%ADD45C,0.0710*%
%ADD46C,0.0866*%
%ADD47C,0.0660*%
%ADD48C,0.0700*%
%ADD49R,0.0382X0.0382*%
%ADD50R,0.0572X0.0572*%
%ADD51R,0.0300X0.0300*%
%ADD52R,0.0700X0.0700*%
%ADD53R,0.0430X0.0430*%
%ADD54R,0.0670X0.0670*%
%ADD55R,0.0660X0.0660*%
%ADD56R,0.0230X0.0230*%
%ADD57R,0.0590X0.0590*%
G54D11*G36*
X23222Y63787D02*Y56687D01*
X30322D01*
Y63787D01*
X23222D01*
G37*
G54D45*X31772Y68897D03*
G54D11*G36*
X35427Y34653D02*Y27553D01*
X42527D01*
Y34653D01*
X35427D01*
G37*
G54D45*X37240Y40951D03*
G54D11*G36*
X172041Y24810D02*Y17710D01*
X179141D01*
Y24810D01*
X172041D01*
G37*
G54D45*X165591Y21260D03*
G54D46*X143229Y19490D03*
X133229D03*
X123229D03*
G54D45*X193521Y32943D03*
G54D11*G36*
X57250Y71803D02*Y65203D01*
X63850D01*
Y71803D01*
X57250D01*
G37*
G54D45*X60057Y22964D03*
G54D47*X70550Y68503D03*
G54D11*G36*
X64167Y20086D02*Y12986D01*
X71267D01*
Y20086D01*
X64167D01*
G37*
G54D47*X80550Y68503D03*
X90550D03*
X100550D03*
G54D11*G36*
X209210Y69697D02*Y62597D01*
X216310D01*
Y69697D01*
X209210D01*
G37*
G54D45*X211024Y56300D03*
G54D48*X201182Y87087D03*
Y97087D03*
G54D11*G36*
X197632Y42921D02*Y35821D01*
X204732D01*
Y42921D01*
X197632D01*
G37*
G54D48*X211182Y92087D03*
G54D38*X236182Y82087D03*
G54D48*X201182Y107087D03*
Y117087D03*
X211182Y112087D03*
G54D11*G36*
X207682Y125587D02*Y118587D01*
X214682D01*
Y125587D01*
X207682D01*
G37*
G54D38*X236182Y127087D03*
G54D48*X211182Y102087D03*
G54D11*G36*
X103417Y195269D02*Y188669D01*
X110017D01*
Y195269D01*
X103417D01*
G37*
G54D47*X116717Y191969D03*
X126717D03*
X136717D03*
G54D11*G36*
X113431Y220357D02*Y213257D01*
X120531D01*
Y220357D01*
X113431D01*
G37*
G54D45*X126378Y213386D03*
G54D11*G36*
X83458Y212212D02*Y205112D01*
X90558D01*
Y212212D01*
X83458D01*
G37*
G54D45*X96405Y212082D03*
G54D11*G36*
X146175Y217329D02*Y210229D01*
X153275D01*
Y217329D01*
X146175D01*
G37*
G54D45*X154725Y205119D03*
G54D46*X205741Y212764D03*
X212812Y205693D03*
X219883Y198622D03*
G54D11*G36*
X61267Y189520D02*Y182920D01*
X67867D01*
Y189520D01*
X61267D01*
G37*
G36*
X61661Y155269D02*Y148669D01*
X68261D01*
Y155269D01*
X61661D01*
G37*
G54D46*X31920Y198850D03*
X38991Y205921D03*
X46063Y212993D03*
G54D11*G36*
X24260Y189127D02*Y182527D01*
X30860D01*
Y189127D01*
X24260D01*
G37*
G36*
X24259Y155663D02*Y149063D01*
X30859D01*
Y155663D01*
X24259D01*
G37*
G54D38*X15945Y134804D03*
G54D48*X50945Y129804D03*
X40945Y124804D03*
X50945Y109804D03*
X40945Y104804D03*
Y114804D03*
G54D11*G36*
X37445Y98304D02*Y91304D01*
X44445D01*
Y98304D01*
X37445D01*
G37*
G54D48*X50945Y99804D03*
G54D38*X15945Y89804D03*
G54D48*X50945Y119804D03*
G54D49*X131103Y37080D02*X132071D01*
X131103Y42914D02*X132071D01*
G54D50*X144487Y38582D02*Y37796D01*
X137401Y38582D02*Y37796D01*
G54D49*Y48033D02*Y47065D01*
X131567Y48033D02*Y47065D01*
G54D11*G36*
X238098Y19417D02*X243118Y24419D01*
X247842Y19678D01*
X242822Y14676D01*
X238098Y19417D01*
G37*
G36*
X228355Y9674D02*X233374Y14675D01*
X238098Y9934D01*
X233079Y4933D01*
X228355Y9674D01*
G37*
G36*
X239769Y13284D02*X239797Y13255D01*
X239769Y13284D01*
G37*
G54D51*X81103Y24422D02*Y22822D01*
X85003Y24422D02*Y22822D01*
Y32622D02*Y31022D01*
X81103Y32622D02*Y31022D01*
G54D52*X58267Y40551D02*X61023D01*
X94094D02*X96850D01*
X58267Y58268D02*X61023D01*
X94094D02*X96850D01*
G54D51*X88903Y24422D02*Y22822D01*
Y32622D02*Y31022D01*
G54D11*G36*
X19997Y14461D02*X25008Y9449D01*
X20276Y4717D01*
X15264Y9728D01*
X19997Y14461D01*
G37*
G36*
X10254Y24204D02*X15264Y19193D01*
X10532Y14461D01*
X5521Y19471D01*
X10254Y24204D01*
G37*
G36*
X13845Y12762D02*X13873Y12790D01*
X13845Y12762D01*
G37*
G54D50*X154724Y83072D02*Y80710D01*
Y92521D02*Y90159D01*
X142914Y92521D02*Y90159D01*
G54D51*X187758Y88122D02*Y86522D01*
X183858Y88122D02*Y86522D01*
X179958Y88122D02*Y86522D01*
Y79922D02*Y78322D01*
X183858Y79922D02*Y78322D01*
X187758Y79922D02*Y78322D01*
G54D53*X173623Y103563D02*Y101163D01*
G54D50*X150001Y101181D02*X152363D01*
G54D53*X167523Y103563D02*Y101163D01*
X161423Y103563D02*Y101163D01*
G54D54*X164523Y90163D02*X170523D01*
G54D50*X124410Y112992D02*X126772D01*
X124410Y101182D02*X126772D01*
X132676Y112991D02*X135038D01*
X132676Y101181D02*X135038D01*
X150001Y112991D02*X152363D01*
X154724Y65356D02*Y62994D01*
Y74805D02*Y72443D01*
X142914Y65356D02*Y62994D01*
G54D49*X137401Y54906D02*Y53938D01*
X131567Y54906D02*Y53938D01*
G54D50*X142914Y74805D02*Y72443D01*
G54D51*X147245Y180328D02*Y178728D01*
X151145Y180328D02*Y178728D01*
X155045Y180328D02*Y178728D01*
Y188528D02*Y186928D01*
X151145Y188528D02*Y186928D01*
X147245Y188528D02*Y186928D01*
G54D55*X182577Y200087D02*Y195851D01*
G54D49*X179528Y210024D02*Y209056D01*
X173694Y210024D02*Y209056D01*
G54D55*X170857Y200087D02*Y195851D01*
G54D49*X163296Y195115D02*X164264D01*
X163296Y200949D02*X164264D01*
X108800Y183953D02*Y182985D01*
X114634Y183953D02*Y182985D01*
G54D56*X100119Y169684D02*X104725D01*
X100119Y167125D02*X104725D01*
X100119Y164566D02*X104725D01*
X100119Y162007D02*X104725D01*
X100119Y159448D02*X104725D01*
X100119Y156889D02*X104725D01*
X100119Y154330D02*X104725D01*
X100119Y151772D02*X104725D01*
X100119Y149213D02*X104725D01*
X100119Y146654D02*X104725D01*
X100119Y144095D02*X104725D01*
X100119Y141536D02*X104725D01*
X100119Y138977D02*X104725D01*
X100119Y136418D02*X104725D01*
X123347D02*X127953D01*
X123347Y138977D02*X127953D01*
X123347Y141536D02*X127953D01*
X123347Y144095D02*X127953D01*
X123347Y146654D02*X127953D01*
G54D49*X193773Y182465D02*Y181497D01*
X199607Y182465D02*Y181497D01*
G54D11*G36*
X233063Y231703D02*X238083Y226701D01*
X233359Y221960D01*
X228339Y226962D01*
X233063Y231703D01*
G37*
G36*
X242816Y221960D02*X247826Y216949D01*
X243094Y212217D01*
X238083Y217227D01*
X242816Y221960D01*
G37*
G36*
X239475Y223629D02*X239504Y223658D01*
X239475Y223629D01*
G37*
G54D50*X185434Y174410D02*Y173624D01*
X192520Y174410D02*Y173624D01*
X206300Y167716D02*Y162206D01*
Y144487D02*Y138977D01*
X218110Y144487D02*Y138977D01*
X206301Y156300D02*Y150790D01*
X218111Y156300D02*Y150790D01*
X218110Y167716D02*Y162206D01*
X186616Y158661D02*Y153151D01*
X198426Y158661D02*Y153151D01*
G54D56*X123347Y149213D02*X127953D01*
X123347Y151772D02*X127953D01*
X123347Y154330D02*X127953D01*
X123347Y156889D02*X127953D01*
X123347Y159448D02*X127953D01*
X123347Y162007D02*X127953D01*
X123347Y164566D02*X127953D01*
X123347Y167125D02*X127953D01*
X123347Y169684D02*X127953D01*
G54D50*X153150Y152755D02*Y147245D01*
X164960Y152755D02*Y147245D01*
X153150Y164174D02*Y158664D01*
X164960Y164174D02*Y158664D01*
X142914Y83072D02*Y80710D01*
X121655Y90945D02*Y88583D01*
X133465Y74410D02*Y72048D01*
Y82677D02*Y80315D01*
X133464Y66142D02*Y63780D01*
X133465Y90945D02*Y88583D01*
X140944Y112991D02*X143306D01*
X140944Y101181D02*X143306D01*
X121655Y74410D02*Y72048D01*
X121654Y66142D02*Y63780D01*
X121655Y82677D02*Y80315D01*
G54D49*X67484Y101272D02*Y100304D01*
G54D57*X97219Y95564D02*X100419D01*
X97219Y83964D02*X100419D01*
G54D49*X88886Y88422D02*X89854D01*
X88887Y84807D02*X89855D01*
X88887Y78973D02*X89855D01*
X93933Y77256D02*Y76288D01*
X99767Y77256D02*Y76288D01*
G54D51*X77473Y77540D02*X83973D01*
X77473Y82540D02*X83973D01*
X77473Y87540D02*X83973D01*
X77473Y92540D02*X83973D01*
G54D50*X53324Y179426D02*X54110D01*
G54D49*X68344Y200879D02*Y199911D01*
X74178Y200879D02*Y199911D01*
G54D50*X53324Y186512D02*X54110D01*
G54D11*G36*
X6292Y215355D02*X11303Y220366D01*
X16035Y215633D01*
X11025Y210623D01*
X6292Y215355D01*
G37*
G36*
X16036Y225108D02*X21055Y230109D01*
X25779Y225368D01*
X20760Y220367D01*
X16036Y225108D01*
G37*
G36*
X14338Y221786D02*X14366Y221757D01*
X14338Y221786D01*
G37*
G54D49*X88886Y94256D02*X89854D01*
X92055Y149787D02*Y148819D01*
X61650Y101272D02*Y100304D01*
X51091Y77399D02*X52059D01*
X51091Y83233D02*X52059D01*
G54D51*X56973Y92540D02*X63473D01*
X56973Y87540D02*X63473D01*
X56973Y82540D02*X63473D01*
X56973Y77540D02*X63473D01*
G54D49*X86221Y149787D02*Y148819D01*
M02*
