G04 start of page 14 for group -4079 idx -4079 *
G04 Title: (unknown), topsilk *
G04 Creator: pcb 20100929 *
G04 CreationDate: Mon 18 Oct 2010 20:02:07 GMT UTC *
G04 For: alex *
G04 Format: Gerber/RS-274X *
G04 PCB-Dimensions: 253937 234252 *
G04 PCB-Coordinate-Origin: lower left *
%MOIN*%
%FSLAX25Y25*%
%LNFRONTSILK*%
%ADD11C,0.0200*%
%ADD12C,0.0098*%
%ADD19C,0.0079*%
%ADD40C,0.0197*%
%ADD62C,0.0100*%
%ADD63C,0.0080*%
G54D12*X159843Y68898D02*X158268Y70473D01*
X105512Y95670D02*X92126Y82284D01*
X125197Y121260D02*Y116930D01*
X142914Y121654D02*Y117717D01*
X136615Y94095D02*X138977Y91733D01*
Y91732D01*
X139764Y90945D01*
G54D19*X4264Y173510D02*X5704D01*
X4984Y179270D02*Y173510D01*
X3544Y177830D02*X4984Y179270D01*
X7433Y178550D02*X8153Y179270D01*
X10313D01*
X11033Y178550D01*
Y177110D01*
X7433Y173510D02*X11033Y177110D01*
X7433Y173510D02*X11033D01*
X12762Y179270D02*Y174950D01*
X14202Y173510D01*
X15642Y174950D01*
Y179270D02*Y174950D01*
X41733Y147773D02*X44613D01*
X41733D02*Y144893D01*
X42453Y145613D01*
X43893D01*
X44613Y144893D01*
Y142733D01*
X43893Y142013D02*X44613Y142733D01*
X42453Y142013D02*X43893D01*
X41733Y142733D02*X42453Y142013D01*
X46342Y147773D02*Y143453D01*
X47782Y142013D01*
X49222Y143453D01*
Y147773D02*Y143453D01*
X71260Y181699D02*X71980Y182419D01*
X73420D01*
X74140Y181699D01*
Y177379D01*
X73420Y176659D02*X74140Y177379D01*
X71980Y176659D02*X73420D01*
X71260Y177379D02*X71980Y176659D01*
Y179539D02*X74140D01*
X75869Y176659D02*X76589D01*
X78318Y181699D02*X79038Y182419D01*
X80478D01*
X81198Y181699D01*
Y177379D01*
X80478Y176659D02*X81198Y177379D01*
X79038Y176659D02*X80478D01*
X78318Y177379D02*X79038Y176659D01*
Y179539D02*X81198D01*
X82928Y182419D02*Y178099D01*
X84368Y176659D01*
X85808Y178099D01*
Y182419D02*Y178099D01*
X6030Y148167D02*X6750Y147447D01*
X3870Y148167D02*X6030D01*
X3150Y147447D02*X3870Y148167D01*
X3150Y147447D02*Y143127D01*
X3870Y142407D01*
X6030D01*
X6750Y143127D01*
Y144567D02*Y143127D01*
X6030Y145287D02*X6750Y144567D01*
X4590Y145287D02*X6030D01*
X8479Y148167D02*Y142407D01*
Y148167D02*Y147447D01*
X12079Y143847D01*
Y148167D02*Y142407D01*
X14528Y148167D02*Y142407D01*
X16688Y148167D02*X17408Y147447D01*
Y143127D01*
X16688Y142407D02*X17408Y143127D01*
X13808Y142407D02*X16688D01*
X13808Y148167D02*X16688D01*
G54D62*X184391Y21260D02*G75*G03X184391Y21260I-13800J0D01*G01*
X182391D02*G75*G03X182391Y21260I-11800J0D01*G01*
G54D63*X146457Y85631D02*X151181D01*
X146457Y78151D02*X151181D01*
X146457Y67915D02*X151181D01*
X146457Y60435D02*X151181D01*
X146457Y77364D02*X151181D01*
X146457Y69884D02*X151181D01*
X140551Y40944D02*X141337D01*
X140551Y35434D02*X141337D01*
G54D62*X90903Y34622D02*X79103D01*
X90903Y20722D02*Y34622D01*
X79103Y20722D02*X90903D01*
X79103Y26122D02*Y20722D01*
Y34622D02*Y29222D01*
Y26222D02*G75*G03X79103Y29222I0J1500D01*G01*
G54D19*X118111Y24608D02*Y8466D01*
Y24608D02*X148347D01*
Y8466D01*
X118111D02*X148347D01*
X123229D02*X123265Y7932D01*
X123372Y7402D01*
X123551Y6879D01*
X123800Y6368D01*
X124116Y5872D01*
X124498Y5395D01*
X124943Y4939D01*
X125448Y4509D01*
X126009Y4108D01*
X126622Y3738D01*
X127282Y3402D01*
X127985Y3103D01*
X128726Y2842D01*
X129500Y2622D01*
X130300Y2444D01*
X131122Y2309D01*
X131958Y2219D01*
X132804Y2173D01*
X133653D01*
X134499Y2219D01*
X135335Y2309D01*
X136157Y2444D01*
X136957Y2622D01*
X137731Y2842D01*
X138472Y3103D01*
X139175Y3402D01*
X139835Y3738D01*
X140448Y4108D01*
X141009Y4509D01*
X141514Y4939D01*
X141959Y5395D01*
X142341Y5872D01*
X142657Y6368D01*
X142906Y6879D01*
X143085Y7402D01*
X143192Y7932D01*
X143229Y8466D01*
G54D63*X125198Y77756D02*X129922D01*
X125198Y85236D02*X129922D01*
G54D19*X96063Y75264D02*X97637D01*
X96063Y78280D02*X97637D01*
G54D63*X125197Y61221D02*X129921D01*
X125197Y68701D02*X129921D01*
G54D19*X133697Y49057D02*X135271D01*
X133697Y46041D02*X135271D01*
X133095Y40784D02*Y39210D01*
X130079Y40784D02*Y39210D01*
G54D62*X104319Y97764D02*X103119Y100364D01*
X104319Y97764D02*Y80164D01*
X93319D02*X104319D01*
X93319Y97764D02*Y80164D01*
X94519Y100364D02*X93319Y97764D01*
G54D11*X94519Y100364D02*X103119D01*
G54D63*X125198Y69489D02*X129922D01*
X125198Y76969D02*X129922D01*
G54D19*X87862Y92126D02*Y90552D01*
X90878Y92126D02*Y90552D01*
X87863Y82677D02*Y81103D01*
X90879Y82677D02*Y81103D01*
G54D63*X121851Y109449D02*Y104725D01*
X129331Y109449D02*Y104725D01*
X146457Y95080D02*X151181D01*
X146457Y87600D02*X151181D01*
X210237Y147046D02*X214173D01*
X210237Y136418D02*X214173D01*
X210238Y158859D02*X214174D01*
X210238Y148231D02*X214174D01*
X210237Y170275D02*X214173D01*
X210237Y159647D02*X214173D01*
X190553Y161220D02*X194489D01*
X190553Y150592D02*X194489D01*
X157087Y155314D02*X161023D01*
X157087Y144686D02*X161023D01*
X157087Y166733D02*X161023D01*
X157087Y156105D02*X161023D01*
G54D62*X177958Y76322D02*X189758D01*
X177958Y90222D02*Y76322D01*
Y90222D02*X189758D01*
Y84822D01*
Y81722D02*Y76322D01*
Y84722D02*G75*G03X189758Y81722I0J-1500D01*G01*
X214288Y74815D02*G75*G03X214288Y74814I-2396J-13590D01*G01*
X213941Y72845D02*G75*G03X213941Y72844I-2049J-11620D01*G01*
X207922Y45028D02*G75*G03X207922Y45027I-10571J-8870D01*G01*
X206390Y43742D02*G75*G03X206390Y43741I-9039J-7584D01*G01*
G54D40*X248677Y16902D02*X234758Y2982D01*
X248677Y22471D02*X243110Y28039D01*
X226406Y11335D01*
X234758Y2982D02*X226406Y11335D01*
X248677Y22471D02*Y16902D01*
G54D62*X101717Y196969D02*X111717D01*
Y186969D01*
X101717Y196969D02*Y186969D01*
Y196969D02*X141717D01*
Y186969D01*
X101717D02*X141717D01*
X108712Y219816D02*G75*G03X108712Y219815I12967J-4719D01*G01*
X110591Y219132D02*G75*G03X110591Y219131I11088J-4035D01*G01*
X145325Y221401D02*G75*G03X145325Y221400I6900J-11951D01*G01*
X146325Y219669D02*G75*G03X146325Y219668I5900J-10219D01*G01*
G54D63*X130117Y109448D02*Y104724D01*
X137597Y109448D02*Y104724D01*
X125198Y86024D02*X129922D01*
X125198Y93504D02*X129922D01*
G54D62*X158323Y85963D02*X176623D01*
X158323Y106663D02*Y85963D01*
Y106663D02*X176623D01*
Y85963D01*
G54D63*X147442Y109448D02*Y104724D01*
X154922Y109448D02*Y104724D01*
G54D19*X133697Y55930D02*X135271D01*
X133697Y52914D02*X135271D01*
G54D63*X138385Y109448D02*Y104724D01*
X145865Y109448D02*Y104724D01*
G54D19*X219883Y191384D02*X231297Y202798D01*
X198503Y212764D02*X219883Y191384D01*
X198503Y212764D02*X209917Y224178D01*
X231297Y202798D01*
X225061Y206417D02*X225422Y207043D01*
X225749Y207714D01*
X226039Y208427D01*
X226290Y209177D01*
X226500Y209958D01*
X226667Y210764D01*
X226791Y211590D01*
X226870Y212429D01*
X226904Y213276D01*
X226893Y214125D01*
X226836Y214969D01*
X226735Y215802D01*
X226589Y216619D01*
X226400Y217413D01*
X226170Y218179D01*
X225899Y218911D01*
X225590Y219604D01*
X225246Y220253D01*
X224868Y220853D01*
X224459Y221400D01*
X224022Y221891D01*
X223561Y222320D01*
X223079Y222686D01*
X222578Y222986D01*
X222064Y223217D01*
X221539Y223378D01*
X221007Y223468D01*
X220473Y223486D01*
X219939Y223432D01*
X219410Y223307D01*
X218890Y223110D01*
X218382Y222844D01*
X217891Y222511D01*
X217418Y222113D01*
X216969Y221653D01*
X216546Y221134D01*
X216152Y220560D01*
X195903Y180473D02*X197477D01*
X195903Y183489D02*X197477D01*
G54D62*X157045Y190528D02*X145245D01*
X157045Y176628D02*Y190528D01*
X145245Y176628D02*X157045D01*
X145245Y182028D02*Y176628D01*
Y190528D02*Y185128D01*
Y182128D02*G75*G03X145245Y185128I0J1500D01*G01*
X183407Y194069D02*X181407Y192069D01*
X170027D02*X181407D01*
X170027Y203869D02*Y192069D01*
Y203869D02*X183407D01*
Y194069D01*
X180717Y197969D02*G75*G03X180717Y197969I-4000J0D01*G01*
G54D19*X165288Y198819D02*Y197245D01*
X162272Y198819D02*Y197245D01*
G54D63*X188584Y171262D02*X189370D01*
X188584Y176772D02*X189370D01*
G54D19*X175824Y209540D02*X177398D01*
X175824Y208359D01*
X177398Y209540D02*X175824Y210721D01*
Y208359D01*
G54D40*X235857Y232538D02*X249776Y218619D01*
X230288Y232538D02*X224720Y226970D01*
X241424Y210266D01*
X249776Y218619D02*X241424Y210266D01*
X230288Y232538D02*X235857D01*
G54D62*X22372Y52616D02*G75*G03X22372Y52615I6900J11951D01*G01*
X23372Y54348D02*G75*G03X23372Y54347I5900J10219D01*G01*
X40504Y22437D02*G75*G03X40504Y22436I-2396J13590D01*G01*
X40157Y24407D02*G75*G03X40157Y24406I-2049J11620D01*G01*
G54D40*X101574Y62205D02*Y36614D01*
X54330Y62205D02*X101574D01*
X54330D02*Y36614D01*
X101574D01*
G54D62*X55550Y73503D02*X65550D01*
Y63503D01*
X55550Y73503D02*Y63503D01*
Y73503D02*X105550D01*
Y63503D01*
X55550D02*X105550D01*
X74458Y10880D02*G75*G03X74458Y10879I-10571J8870D01*G01*
X72926Y12166D02*G75*G03X72926Y12165I-9039J7584D01*G01*
G54D40*X17491Y3882D02*X3572Y17801D01*
X23060Y3882D02*X28628Y9449D01*
X11924Y26153D01*
X3572Y17801D02*X11924Y26153D01*
X17491Y3882D02*X23060D01*
G54D62*X59567Y181220D02*X69567D01*
G54D11*Y186220D03*
X59567D03*
G75*G03X69567Y186220I5000J0D01*G01*
G75*G03X59567Y186220I-5000J0D01*G01*
G54D63*X56472Y183362D02*Y182576D01*
X50962Y183362D02*Y182576D01*
G54D19*X41886Y224407D02*X53301Y212993D01*
X31920Y191612D01*
X20506Y203027D02*X31920Y191612D01*
X41886Y224407D02*X20506Y203027D01*
X38267Y218172D02*X37641Y218533D01*
X36970Y218860D01*
X36257Y219150D01*
X35507Y219401D01*
X34726Y219611D01*
X33920Y219778D01*
X33094Y219902D01*
X32255Y219981D01*
X31408Y220015D01*
X30559Y220004D01*
X29715Y219947D01*
X28882Y219846D01*
X28065Y219700D01*
X27271Y219511D01*
X26505Y219281D01*
X25773Y219010D01*
X25080Y218701D01*
X24431Y218357D01*
X23831Y217979D01*
X23284Y217570D01*
X22793Y217133D01*
X22364Y216672D01*
X21998Y216190D01*
X21698Y215689D01*
X21467Y215175D01*
X21306Y214650D01*
X21216Y214118D01*
X21198Y213584D01*
X21252Y213050D01*
X21377Y212521D01*
X21574Y212001D01*
X21840Y211493D01*
X22173Y211002D01*
X22571Y210529D01*
X23031Y210080D01*
X23550Y209657D01*
X24124Y209263D01*
G54D40*X5457Y218139D02*X19376Y232059D01*
X5457Y212570D02*X11025Y207002D01*
X27729Y223706D01*
X19376Y232059D02*X27729Y223706D01*
X5457Y218139D02*Y212570D01*
G54D62*X59961Y146969D02*X69961D01*
G54D11*Y151969D03*
X59961D03*
G75*G03X69961Y151969I5000J0D01*G01*
G75*G03X59961Y151969I-5000J0D01*G01*
G54D62*X129602Y171334D02*X116536D01*
X98470D02*X111536D01*
X129602Y134768D02*Y171334D01*
X98470Y134768D02*X129602D01*
X98470Y171334D02*Y134768D01*
X111536Y171334D02*G75*G03X116536Y171334I2500J0D01*G01*
G54D19*X88351Y147795D02*X89925D01*
X88351Y150811D02*X89925D01*
G54D62*X22560Y180827D02*X32560D01*
G54D11*Y185827D03*
X22560D03*
G75*G03X32560Y185827I5000J0D01*G01*
G75*G03X22560Y185827I-5000J0D01*G01*
G54D62*X22559Y147363D02*X32559D01*
G54D11*Y152363D03*
X22559D03*
G75*G03X32559Y152363I5000J0D01*G01*
G75*G03X22559Y152363I-5000J0D01*G01*
G54D19*X110930Y181961D02*X112504D01*
X110930Y184977D02*X112504D01*
G54D62*X78739Y205653D02*G75*G03X78739Y205652I12967J4719D01*G01*
X80618Y206337D02*G75*G03X80618Y206336I11088J4035D01*G01*
G54D19*X70474Y198887D02*X72048D01*
X70474Y201903D02*X72048D01*
X53083Y81103D02*Y79529D01*
X50067Y81103D02*Y79529D01*
X63780Y102296D02*X65354D01*
X63780Y99280D02*X65354D01*
G54D62*X85973Y94540D02*X72973D01*
X54973D02*X67973D01*
X85973Y75540D02*Y94540D01*
X54973Y75540D02*X85973D01*
X54973Y94540D02*Y75540D01*
X67973Y94540D02*G75*G03X72973Y94540I2500J0D01*G01*
G54D19*X187403Y19473D02*Y15473D01*
X189403D01*
X190604Y17473D02*X192104D01*
X190604Y15473D02*X192604D01*
X190604Y19473D02*Y15473D01*
Y19473D02*X192604D01*
X194305D02*Y15473D01*
X195805Y19473D02*X196305Y18973D01*
Y15973D01*
X195805Y15473D02*X196305Y15973D01*
X193805Y15473D02*X195805D01*
X193805Y19473D02*X195805D01*
X197506Y17473D02*X199506Y19473D01*
X197506Y17473D02*X200006D01*
X199506Y19473D02*Y15473D01*
X149213Y7662D02*Y3662D01*
X151213D01*
X152414Y5662D02*X153914D01*
X152414Y3662D02*X154414D01*
X152414Y7662D02*Y3662D01*
Y7662D02*X154414D01*
X156115D02*Y3662D01*
X157615Y7662D02*X158115Y7162D01*
Y4162D01*
X157615Y3662D02*X158115Y4162D01*
X155615Y3662D02*X157615D01*
X155615Y7662D02*X157615D01*
X159316Y3662D02*X161816Y6162D01*
Y7662D02*Y6162D01*
X159316Y7662D02*X161816D01*
X119685Y41520D02*X121685D01*
X122185Y41020D01*
Y40020D01*
X121685Y39520D02*X122185Y40020D01*
X120185Y39520D02*X121685D01*
X120185Y41520D02*Y37520D01*
Y39520D02*X122185Y37520D01*
X123886D02*X124886D01*
X124386Y41520D02*Y37520D01*
X123386Y40520D02*X124386Y41520D01*
X126087Y37520D02*X128587Y40020D01*
Y41520D02*Y40020D01*
X126087Y41520D02*X128587D01*
X92508Y23661D02*Y20661D01*
Y23661D02*X93008Y24161D01*
X94008D01*
X94508Y23661D01*
Y20661D01*
X94008Y20161D02*X94508Y20661D01*
X93008Y20161D02*X94008D01*
X92508Y20661D02*X93008Y20161D01*
X93508Y21161D02*X94508Y20161D01*
X95709Y22161D02*X97709Y24161D01*
X95709Y22161D02*X98209D01*
X97709Y24161D02*Y20161D01*
X110238Y17308D02*Y13808D01*
X110738Y13308D01*
X111738D01*
X112238Y13808D01*
Y17308D02*Y13808D01*
X113439Y15308D02*X115439Y17308D01*
X113439Y15308D02*X115939D01*
X115439Y17308D02*Y13308D01*
X212992Y44670D02*Y40670D01*
X214992D01*
X216193Y42670D02*X217693D01*
X216193Y40670D02*X218193D01*
X216193Y44670D02*Y40670D01*
Y44670D02*X218193D01*
X219894D02*Y40670D01*
X221394Y44670D02*X221894Y44170D01*
Y41170D01*
X221394Y40670D02*X221894Y41170D01*
X219394Y40670D02*X221394D01*
X219394Y44670D02*X221394D01*
X223595Y40670D02*X224595D01*
X224095Y44670D02*Y40670D01*
X223095Y43670D02*X224095Y44670D01*
X158661Y84040D02*X160661D01*
X161161Y83540D01*
Y82540D01*
X160661Y82040D02*X161161Y82540D01*
X159161Y82040D02*X160661D01*
X159161Y84040D02*Y80040D01*
Y82040D02*X161161Y80040D01*
X162362Y83540D02*X162862Y84040D01*
X163862D01*
X164362Y83540D01*
Y80540D01*
X163862Y80040D02*X164362Y80540D01*
X162862Y80040D02*X163862D01*
X162362Y80540D02*X162862Y80040D01*
Y82040D02*X164362D01*
X191958Y82423D02*Y79423D01*
Y82423D02*X192458Y82923D01*
X193458D01*
X193958Y82423D01*
Y79423D01*
X193458Y78923D02*X193958Y79423D01*
X192458Y78923D02*X193458D01*
X191958Y79423D02*X192458Y78923D01*
X192958Y79923D02*X193958Y78923D01*
X195659D02*X196659D01*
X196159Y82923D02*Y78923D01*
X195159Y81923D02*X196159Y82923D01*
X158268Y61205D02*X160268D01*
X160768Y60705D01*
Y59705D01*
X160268Y59205D02*X160768Y59705D01*
X158768Y59205D02*X160268D01*
X158768Y61205D02*Y57205D01*
Y59205D02*X160768Y57205D01*
X162469D02*X163469D01*
X162969Y61205D02*Y57205D01*
X161969Y60205D02*X162969Y61205D01*
X157875Y67504D02*X159875D01*
X160375Y67004D01*
Y66004D01*
X159875Y65504D02*X160375Y66004D01*
X158375Y65504D02*X159875D01*
X158375Y67504D02*Y63504D01*
Y65504D02*X160375Y63504D01*
X161576Y67004D02*X162076Y67504D01*
X163576D01*
X164076Y67004D01*
Y66004D01*
X161576Y63504D02*X164076Y66004D01*
X161576Y63504D02*X164076D01*
X223229Y34237D02*Y30237D01*
X225229D01*
X226430Y32237D02*X227930D01*
X226430Y30237D02*X228430D01*
X226430Y34237D02*Y30237D01*
Y34237D02*X228430D01*
X230131D02*Y30237D01*
X231631Y34237D02*X232131Y33737D01*
Y30737D01*
X231631Y30237D02*X232131Y30737D01*
X229631Y30237D02*X231631D01*
X229631Y34237D02*X231631D01*
X233832Y30237D02*X234832D01*
X234332Y34237D02*Y30237D01*
X233332Y33237D02*X234332Y34237D01*
X236033Y30737D02*X236533Y30237D01*
X236033Y33737D02*Y30737D01*
Y33737D02*X236533Y34237D01*
X237533D01*
X238033Y33737D01*
Y30737D01*
X237533Y30237D02*X238033Y30737D01*
X236533Y30237D02*X237533D01*
X236033Y31237D02*X238033Y33237D01*
X88583Y193488D02*X90083D01*
Y189988D01*
X89583Y189488D02*X90083Y189988D01*
X89083Y189488D02*X89583D01*
X88583Y189988D02*X89083Y189488D01*
X91784D02*X92784D01*
X92284Y193488D02*Y189488D01*
X91284Y192488D02*X92284Y193488D01*
X93985Y189988D02*X94485Y189488D01*
X93985Y192988D02*Y189988D01*
Y192988D02*X94485Y193488D01*
X95485D01*
X95985Y192988D01*
Y189988D01*
X95485Y189488D02*X95985Y189988D01*
X94485Y189488D02*X95485D01*
X93985Y190488D02*X95985Y192488D01*
X97186Y189988D02*X97686Y189488D01*
X97186Y192988D02*Y189988D01*
Y192988D02*X97686Y193488D01*
X98686D01*
X99186Y192988D01*
Y189988D01*
X98686Y189488D02*X99186Y189988D01*
X97686Y189488D02*X98686D01*
X97186Y190488D02*X99186Y192488D01*
X71761Y183978D02*X73261D01*
X71261Y184478D02*X71761Y183978D01*
X71261Y187478D02*Y184478D01*
Y187478D02*X71761Y187978D01*
X73261D01*
X74462Y187478D02*Y184478D01*
Y187478D02*X74962Y187978D01*
X75962D01*
X76462Y187478D01*
Y184478D01*
X75962Y183978D02*X76462Y184478D01*
X74962Y183978D02*X75962D01*
X74462Y184478D02*X74962Y183978D01*
X77663Y187978D02*Y183978D01*
Y187978D02*Y187478D01*
X80163Y184978D01*
Y187978D02*Y183978D01*
X81364Y187978D02*Y183978D01*
Y187978D02*Y187478D01*
X83864Y184978D01*
Y187978D02*Y183978D01*
X85065Y185978D02*X87065Y187978D01*
X85065Y185978D02*X87565D01*
X87065Y187978D02*Y183978D01*
X67717Y208056D02*X69717D01*
X70217Y207556D01*
Y206556D01*
X69717Y206056D02*X70217Y206556D01*
X68217Y206056D02*X69717D01*
X68217Y208056D02*Y204056D01*
Y206056D02*X70217Y204056D01*
X71418Y207556D02*X71918Y208056D01*
X73418D01*
X73918Y207556D01*
Y206556D01*
X71418Y204056D02*X73918Y206556D01*
X71418Y204056D02*X73918D01*
X75619D02*X76619D01*
X76119Y208056D02*Y204056D01*
X75119Y207056D02*X76119Y208056D01*
X170866Y112386D02*Y108886D01*
X171366Y108386D01*
X172366D01*
X172866Y108886D01*
Y112386D02*Y108886D01*
X174567Y108386D02*X175567D01*
X175067Y112386D02*Y108386D01*
X174067Y111386D02*X175067Y112386D01*
X169004Y149330D02*X170504D01*
X168504Y149830D02*X169004Y149330D01*
X168504Y152830D02*Y149830D01*
Y152830D02*X169004Y153330D01*
X170504D01*
X171705Y149330D02*X173705Y151330D01*
Y152830D02*Y151330D01*
X173205Y153330D02*X173705Y152830D01*
X172205Y153330D02*X173205D01*
X171705Y152830D02*X172205Y153330D01*
X171705Y152830D02*Y151830D01*
X172205Y151330D01*
X173705D01*
X105119Y180103D02*X107119D01*
X107619Y179603D01*
Y178603D01*
X107119Y178103D02*X107619Y178603D01*
X105619Y178103D02*X107119D01*
X105619Y180103D02*Y176103D01*
Y178103D02*X107619Y176103D01*
X109320D02*X110320D01*
X109820Y180103D02*Y176103D01*
X108820Y179103D02*X109820Y180103D01*
X111521Y176603D02*X112021Y176103D01*
X111521Y179603D02*Y176603D01*
Y179603D02*X112021Y180103D01*
X113021D01*
X113521Y179603D01*
Y176603D01*
X113021Y176103D02*X113521Y176603D01*
X112021Y176103D02*X113021D01*
X111521Y177103D02*X113521Y179103D01*
X114722Y179603D02*X115222Y180103D01*
X116222D01*
X116722Y179603D01*
Y176603D01*
X116222Y176103D02*X116722Y176603D01*
X115222Y176103D02*X116222D01*
X114722Y176603D02*X115222Y176103D01*
Y178103D02*X116722D01*
X110067Y158051D02*Y154551D01*
X110567Y154051D01*
X111567D01*
X112067Y154551D01*
Y158051D02*Y154551D01*
X113268Y157551D02*X113768Y158051D01*
X115268D01*
X115768Y157551D01*
Y156551D01*
X113268Y154051D02*X115768Y156551D01*
X113268Y154051D02*X115768D01*
X84253Y156087D02*X86253D01*
X86753Y155587D01*
Y154587D01*
X86253Y154087D02*X86753Y154587D01*
X84753Y154087D02*X86253D01*
X84753Y156087D02*Y152087D01*
Y154087D02*X86753Y152087D01*
X88454D02*X89454D01*
X88954Y156087D02*Y152087D01*
X87954Y155087D02*X88954Y156087D01*
X92155D02*X92655Y155587D01*
X91155Y156087D02*X92155D01*
X90655Y155587D02*X91155Y156087D01*
X90655Y155587D02*Y152587D01*
X91155Y152087D01*
X92155Y154087D02*X92655Y153587D01*
X90655Y154087D02*X92155D01*
X91155Y152087D02*X92155D01*
X92655Y152587D01*
Y153587D02*Y152587D01*
X61524Y104450D02*X63024D01*
X61024Y104950D02*X61524Y104450D01*
X61024Y107950D02*Y104950D01*
Y107950D02*X61524Y108450D01*
X63024D01*
X64225Y106450D02*X66225Y108450D01*
X64225Y106450D02*X66725D01*
X66225Y108450D02*Y104450D01*
X67685Y90828D02*Y87328D01*
X68185Y86828D01*
X69185D01*
X69685Y87328D01*
Y90828D02*Y87328D01*
X70886Y90328D02*X71386Y90828D01*
X72386D01*
X72886Y90328D01*
Y87328D01*
X72386Y86828D02*X72886Y87328D01*
X71386Y86828D02*X72386D01*
X70886Y87328D02*X71386Y86828D01*
Y88828D02*X72886D01*
X99213Y230497D02*Y226497D01*
X101213D01*
X102414Y228497D02*X103914D01*
X102414Y226497D02*X104414D01*
X102414Y230497D02*Y226497D01*
Y230497D02*X104414D01*
X106115D02*Y226497D01*
X107615Y230497D02*X108115Y229997D01*
Y226997D01*
X107615Y226497D02*X108115Y226997D01*
X105615Y226497D02*X107615D01*
X105615Y230497D02*X107615D01*
X110816D02*X111316Y229997D01*
X109816Y230497D02*X110816D01*
X109316Y229997D02*X109816Y230497D01*
X109316Y229997D02*Y226997D01*
X109816Y226497D01*
X110816Y228497D02*X111316Y227997D01*
X109316Y228497D02*X110816D01*
X109816Y226497D02*X110816D01*
X111316Y226997D01*
Y227997D02*Y226997D01*
X56891Y218686D02*Y215186D01*
X57391Y214686D01*
X58391D01*
X58891Y215186D01*
Y218686D02*Y215186D01*
X61592Y218686D02*X62092Y218186D01*
X60592Y218686D02*X61592D01*
X60092Y218186D02*X60592Y218686D01*
X60092Y218186D02*Y215186D01*
X60592Y214686D01*
X61592Y216686D02*X62092Y216186D01*
X60092Y216686D02*X61592D01*
X60592Y214686D02*X61592D01*
X62092Y215186D01*
Y216186D02*Y215186D01*
X74017Y228527D02*Y224527D01*
X76017D01*
X77218Y226527D02*X78718D01*
X77218Y224527D02*X79218D01*
X77218Y228527D02*Y224527D01*
Y228527D02*X79218D01*
X80919D02*Y224527D01*
X82419Y228527D02*X82919Y228027D01*
Y225027D01*
X82419Y224527D02*X82919Y225027D01*
X80419Y224527D02*X82419D01*
X80419Y228527D02*X82419D01*
X84120Y228027D02*X84620Y228527D01*
X85620D01*
X86120Y228027D01*
Y225027D01*
X85620Y224527D02*X86120Y225027D01*
X84620Y224527D02*X85620D01*
X84120Y225027D02*X84620Y224527D01*
Y226527D02*X86120D01*
X146064Y229316D02*Y225316D01*
X148064D01*
X149265Y227316D02*X150765D01*
X149265Y225316D02*X151265D01*
X149265Y229316D02*Y225316D01*
Y229316D02*X151265D01*
X152966D02*Y225316D01*
X154466Y229316D02*X154966Y228816D01*
Y225816D01*
X154466Y225316D02*X154966Y225816D01*
X152466Y225316D02*X154466D01*
X152466Y229316D02*X154466D01*
X156167Y225316D02*X158167Y227316D01*
Y228816D02*Y227316D01*
X157667Y229316D02*X158167Y228816D01*
X156667Y229316D02*X157667D01*
X156167Y228816D02*X156667Y229316D01*
X156167Y228816D02*Y227816D01*
X156667Y227316D01*
X158167D01*
X212040Y229088D02*Y225588D01*
X212540Y225088D01*
X213540D01*
X214040Y225588D01*
Y229088D02*Y225588D01*
X215241Y229088D02*X217241D01*
X215241D02*Y227088D01*
X215741Y227588D01*
X216741D01*
X217241Y227088D01*
Y225588D01*
X216741Y225088D02*X217241Y225588D01*
X215741Y225088D02*X216741D01*
X215241Y225588D02*X215741Y225088D01*
X170079Y218292D02*Y214292D01*
X172079D01*
X173280Y216292D02*X174780D01*
X173280Y214292D02*X175280D01*
X173280Y218292D02*Y214292D01*
Y218292D02*X175280D01*
X176981D02*Y214292D01*
X178481Y218292D02*X178981Y217792D01*
Y214792D01*
X178481Y214292D02*X178981Y214792D01*
X176481Y214292D02*X178481D01*
X176481Y218292D02*X178481D01*
X180682Y214292D02*X181682D01*
X181182Y218292D02*Y214292D01*
X180182Y217292D02*X181182Y218292D01*
X182883D02*X184883D01*
X182883D02*Y216292D01*
X183383Y216792D01*
X184383D01*
X184883Y216292D01*
Y214792D01*
X184383Y214292D02*X184883Y214792D01*
X183383Y214292D02*X184383D01*
X182883Y214792D02*X183383Y214292D01*
X189764Y188764D02*X191764D01*
X192264Y188264D01*
Y187264D01*
X191764Y186764D02*X192264Y187264D01*
X190264Y186764D02*X191764D01*
X190264Y188764D02*Y184764D01*
Y186764D02*X192264Y184764D01*
X193465Y188264D02*X193965Y188764D01*
X195465D01*
X195965Y188264D01*
Y187264D01*
X193465Y184764D02*X195965Y187264D01*
X193465Y184764D02*X195965D01*
X197166Y185264D02*X197666Y184764D01*
X197166Y188264D02*Y185264D01*
Y188264D02*X197666Y188764D01*
X198666D01*
X199166Y188264D01*
Y185264D01*
X198666Y184764D02*X199166Y185264D01*
X197666Y184764D02*X198666D01*
X197166Y185764D02*X199166Y187764D01*
X146851Y174485D02*Y171485D01*
Y174485D02*X147351Y174985D01*
X148351D01*
X148851Y174485D01*
Y171485D01*
X148351Y170985D02*X148851Y171485D01*
X147351Y170985D02*X148351D01*
X146851Y171485D02*X147351Y170985D01*
X147851Y171985D02*X148851Y170985D01*
X150052Y174485D02*X150552Y174985D01*
X151552D01*
X152052Y174485D01*
Y171485D01*
X151552Y170985D02*X152052Y171485D01*
X150552Y170985D02*X151552D01*
X150052Y171485D02*X150552Y170985D01*
Y172985D02*X152052D01*
X170079Y189552D02*Y185552D01*
X172079D01*
X173280Y187552D02*X174780D01*
X173280Y185552D02*X175280D01*
X173280Y189552D02*Y185552D01*
Y189552D02*X175280D01*
X176981D02*Y185552D01*
X178481Y189552D02*X178981Y189052D01*
Y186052D01*
X178481Y185552D02*X178981Y186052D01*
X176481Y185552D02*X178481D01*
X176481Y189552D02*X178481D01*
X180682Y185552D02*X181682D01*
X181182Y189552D02*Y185552D01*
X180182Y188552D02*X181182Y189552D01*
X182883Y187552D02*X184883Y189552D01*
X182883Y187552D02*X185383D01*
X184883Y189552D02*Y185552D01*
X158662Y191914D02*X160662D01*
X161162Y191414D01*
Y190414D01*
X160662Y189914D02*X161162Y190414D01*
X159162Y189914D02*X160662D01*
X159162Y191914D02*Y187914D01*
Y189914D02*X161162Y187914D01*
X162363Y191414D02*X162863Y191914D01*
X164363D01*
X164863Y191414D01*
Y190414D01*
X162363Y187914D02*X164863Y190414D01*
X162363Y187914D02*X164863D01*
X166064Y191414D02*X166564Y191914D01*
X168064D01*
X168564Y191414D01*
Y190414D01*
X166064Y187914D02*X168564Y190414D01*
X166064Y187914D02*X168564D01*
X184359Y177678D02*X185859D01*
X183859Y178178D02*X184359Y177678D01*
X183859Y181178D02*Y178178D01*
Y181178D02*X184359Y181678D01*
X185859D01*
X188560D02*X189060Y181178D01*
X187560Y181678D02*X188560D01*
X187060Y181178D02*X187560Y181678D01*
X187060Y181178D02*Y178178D01*
X187560Y177678D01*
X188560Y179678D02*X189060Y179178D01*
X187060Y179678D02*X188560D01*
X187560Y177678D02*X188560D01*
X189060Y178178D01*
Y179178D02*Y178178D01*
X234056Y205300D02*Y201300D01*
X236056D01*
X237257Y203300D02*X238757D01*
X237257Y201300D02*X239257D01*
X237257Y205300D02*Y201300D01*
Y205300D02*X239257D01*
X240958D02*Y201300D01*
X242458Y205300D02*X242958Y204800D01*
Y201800D01*
X242458Y201300D02*X242958Y201800D01*
X240458Y201300D02*X242458D01*
X240458Y205300D02*X242458D01*
X244659Y201300D02*X245659D01*
X245159Y205300D02*Y201300D01*
X244159Y204300D02*X245159Y205300D01*
X247360Y201300D02*X248360D01*
X247860Y205300D02*Y201300D01*
X246860Y204300D02*X247860Y205300D01*
X148926Y35946D02*X150426D01*
X148426Y36446D02*X148926Y35946D01*
X148426Y39446D02*Y36446D01*
Y39446D02*X148926Y39946D01*
X150426D01*
X151627D02*X153627D01*
X151627D02*Y37946D01*
X152127Y38446D01*
X153127D01*
X153627Y37946D01*
Y36446D01*
X153127Y35946D02*X153627Y36446D01*
X152127Y35946D02*X153127D01*
X151627Y36446D02*X152127Y35946D01*
X148032Y121834D02*X150032D01*
X150532Y121334D01*
Y120334D01*
X150032Y119834D02*X150532Y120334D01*
X148532Y119834D02*X150032D01*
X148532Y121834D02*Y117834D01*
Y119834D02*X150532Y117834D01*
X151733D02*X153733Y119834D01*
Y121334D02*Y119834D01*
X153233Y121834D02*X153733Y121334D01*
X152233Y121834D02*X153233D01*
X151733Y121334D02*X152233Y121834D01*
X151733Y121334D02*Y120334D01*
X152233Y119834D01*
X153733D01*
X138977Y127347D02*X140977D01*
X141477Y126847D01*
Y125847D01*
X140977Y125347D02*X141477Y125847D01*
X139477Y125347D02*X140977D01*
X139477Y127347D02*Y123347D01*
Y125347D02*X141477Y123347D01*
X143178D02*X144178D01*
X143678Y127347D02*Y123347D01*
X142678Y126347D02*X143678Y127347D01*
X145379Y123847D02*X145879Y123347D01*
X145379Y126847D02*Y123847D01*
Y126847D02*X145879Y127347D01*
X146879D01*
X147379Y126847D01*
Y123847D01*
X146879Y123347D02*X147379Y123847D01*
X145879Y123347D02*X146879D01*
X145379Y124347D02*X147379Y126347D01*
X132678Y98214D02*X134678D01*
X135178Y97714D01*
Y96714D01*
X134678Y96214D02*X135178Y96714D01*
X133178Y96214D02*X134678D01*
X133178Y98214D02*Y94214D01*
Y96214D02*X135178Y94214D01*
X136379Y96214D02*X138379Y98214D01*
X136379Y96214D02*X138879D01*
X138379Y98214D02*Y94214D01*
X223335Y140670D02*X224835D01*
X222835Y141170D02*X223335Y140670D01*
X222835Y144170D02*Y141170D01*
Y144170D02*X223335Y144670D01*
X224835D01*
X226536Y140670D02*X227536D01*
X227036Y144670D02*Y140670D01*
X226036Y143670D02*X227036Y144670D01*
X229237Y140670D02*X230237D01*
X229737Y144670D02*Y140670D01*
X228737Y143670D02*X229737Y144670D01*
X223729Y152087D02*X225229D01*
X223229Y152587D02*X223729Y152087D01*
X223229Y155587D02*Y152587D01*
Y155587D02*X223729Y156087D01*
X225229D01*
X226930Y152087D02*X227930D01*
X227430Y156087D02*Y152087D01*
X226430Y155087D02*X227430Y156087D01*
X223335Y162718D02*X224835D01*
X222835Y163218D02*X223335Y162718D01*
X222835Y166218D02*Y163218D01*
Y166218D02*X223335Y166718D01*
X224835D01*
X226036Y166218D02*X226536Y166718D01*
X228036D01*
X228536Y166218D01*
Y165218D01*
X226036Y162718D02*X228536Y165218D01*
X226036Y162718D02*X228536D01*
X178059Y154056D02*X179559D01*
X177559Y154556D02*X178059Y154056D01*
X177559Y157556D02*Y154556D01*
Y157556D02*X178059Y158056D01*
X179559D01*
X180760Y154556D02*X181260Y154056D01*
X180760Y155556D02*Y154556D01*
Y155556D02*X181260Y156056D01*
X182260D01*
X182760Y155556D01*
Y154556D01*
X182260Y154056D02*X182760Y154556D01*
X181260Y154056D02*X182260D01*
X180760Y156556D02*X181260Y156056D01*
X180760Y157556D02*Y156556D01*
Y157556D02*X181260Y158056D01*
X182260D01*
X182760Y157556D01*
Y156556D01*
X182260Y156056D02*X182760Y156556D01*
X168611Y161142D02*X170111D01*
X168111Y161642D02*X168611Y161142D01*
X168111Y164642D02*Y161642D01*
Y164642D02*X168611Y165142D01*
X170111D01*
X171812Y161142D02*X172812D01*
X172312Y165142D02*Y161142D01*
X171312Y164142D02*X172312Y165142D01*
X174013Y161642D02*X174513Y161142D01*
X174013Y164642D02*Y161642D01*
Y164642D02*X174513Y165142D01*
X175513D01*
X176013Y164642D01*
Y161642D01*
X175513Y161142D02*X176013Y161642D01*
X174513Y161142D02*X175513D01*
X174013Y162142D02*X176013Y164142D01*
X6300Y53332D02*Y49332D01*
X8300D01*
X9501Y51332D02*X11001D01*
X9501Y49332D02*X11501D01*
X9501Y53332D02*Y49332D01*
Y53332D02*X11501D01*
X13202D02*Y49332D01*
X14702Y53332D02*X15202Y52832D01*
Y49832D01*
X14702Y49332D02*X15202Y49832D01*
X12702Y49332D02*X14702D01*
X12702Y53332D02*X14702D01*
X16403Y49832D02*X16903Y49332D01*
X16403Y50832D02*Y49832D01*
Y50832D02*X16903Y51332D01*
X17903D01*
X18403Y50832D01*
Y49832D01*
X17903Y49332D02*X18403Y49832D01*
X16903Y49332D02*X17903D01*
X16403Y51832D02*X16903Y51332D01*
X16403Y52832D02*Y51832D01*
Y52832D02*X16903Y53332D01*
X17903D01*
X18403Y52832D01*
Y51832D01*
X17903Y51332D02*X18403Y51832D01*
X33465Y19473D02*Y15473D01*
X35465D01*
X36666Y17473D02*X38166D01*
X36666Y15473D02*X38666D01*
X36666Y19473D02*Y15473D01*
Y19473D02*X38666D01*
X40367D02*Y15473D01*
X41867Y19473D02*X42367Y18973D01*
Y15973D01*
X41867Y15473D02*X42367Y15973D01*
X39867Y15473D02*X41867D01*
X39867Y19473D02*X41867D01*
X43568D02*X45568D01*
X43568D02*Y17473D01*
X44068Y17973D01*
X45068D01*
X45568Y17473D01*
Y15973D01*
X45068Y15473D02*X45568Y15973D01*
X44068Y15473D02*X45068D01*
X43568Y15973D02*X44068Y15473D01*
X38977Y82465D02*X40977D01*
X41477Y81965D01*
Y80965D01*
X40977Y80465D02*X41477Y80965D01*
X39477Y80465D02*X40977D01*
X39477Y82465D02*Y78465D01*
Y80465D02*X41477Y78465D01*
X43178D02*X44178D01*
X43678Y82465D02*Y78465D01*
X42678Y81465D02*X43678Y82465D01*
X45379Y80465D02*X47379Y82465D01*
X45379Y80465D02*X47879D01*
X47379Y82465D02*Y78465D01*
X29922Y8449D02*Y4449D01*
X31922D01*
X33123Y6449D02*X34623D01*
X33123Y4449D02*X35123D01*
X33123Y8449D02*Y4449D01*
Y8449D02*X35123D01*
X36824D02*Y4449D01*
X38324Y8449D02*X38824Y7949D01*
Y4949D01*
X38324Y4449D02*X38824Y4949D01*
X36324Y4449D02*X38324D01*
X36324Y8449D02*X38324D01*
X40525Y4449D02*X41525D01*
X41025Y8449D02*Y4449D01*
X40025Y7449D02*X41025Y8449D01*
X42726Y7949D02*X43226Y8449D01*
X44226D01*
X44726Y7949D01*
Y4949D01*
X44226Y4449D02*X44726Y4949D01*
X43226Y4449D02*X44226D01*
X42726Y4949D02*X43226Y4449D01*
Y6449D02*X44726D01*
X4044Y149724D02*X5544D01*
X3544Y150224D02*X4044Y149724D01*
X3544Y153224D02*Y150224D01*
Y153224D02*X4044Y153724D01*
X5544D01*
X6745Y153224D02*Y150224D01*
Y153224D02*X7245Y153724D01*
X8245D01*
X8745Y153224D01*
Y150224D01*
X8245Y149724D02*X8745Y150224D01*
X7245Y149724D02*X8245D01*
X6745Y150224D02*X7245Y149724D01*
X9946Y153724D02*Y149724D01*
Y153724D02*Y153224D01*
X12446Y150724D01*
Y153724D02*Y149724D01*
X13647Y153724D02*Y149724D01*
Y153724D02*Y153224D01*
X16147Y150724D01*
Y153724D02*Y149724D01*
X17348Y153724D02*X19348D01*
X17348D02*Y151724D01*
X17848Y152224D01*
X18848D01*
X19348Y151724D01*
Y150224D01*
X18848Y149724D02*X19348Y150224D01*
X17848Y149724D02*X18848D01*
X17348Y150224D02*X17848Y149724D01*
X4044Y182796D02*X5544D01*
X3544Y183296D02*X4044Y182796D01*
X3544Y186296D02*Y183296D01*
Y186296D02*X4044Y186796D01*
X5544D01*
X6745Y186296D02*Y183296D01*
Y186296D02*X7245Y186796D01*
X8245D01*
X8745Y186296D01*
Y183296D01*
X8245Y182796D02*X8745Y183296D01*
X7245Y182796D02*X8245D01*
X6745Y183296D02*X7245Y182796D01*
X9946Y186796D02*Y182796D01*
Y186796D02*Y186296D01*
X12446Y183796D01*
Y186796D02*Y182796D01*
X13647Y186796D02*Y182796D01*
Y186796D02*Y186296D01*
X16147Y183796D01*
Y186796D02*Y182796D01*
X17348Y186296D02*X17848Y186796D01*
X19348D01*
X19848Y186296D01*
Y185296D01*
X17348Y182796D02*X19848Y185296D01*
X17348Y182796D02*X19848D01*
X42232Y149331D02*X43732D01*
X41732Y149831D02*X42232Y149331D01*
X41732Y152831D02*Y149831D01*
Y152831D02*X42232Y153331D01*
X43732D01*
X44933Y152831D02*Y149831D01*
Y152831D02*X45433Y153331D01*
X46433D01*
X46933Y152831D01*
Y149831D01*
X46433Y149331D02*X46933Y149831D01*
X45433Y149331D02*X46433D01*
X44933Y149831D02*X45433Y149331D01*
X48134Y153331D02*Y149331D01*
Y153331D02*Y152831D01*
X50634Y150331D01*
Y153331D02*Y149331D01*
X51835Y153331D02*Y149331D01*
Y153331D02*Y152831D01*
X54335Y150331D01*
Y153331D02*Y149331D01*
X55536Y152831D02*X56036Y153331D01*
X57036D01*
X57536Y152831D01*
Y149831D01*
X57036Y149331D02*X57536Y149831D01*
X56036Y149331D02*X57036D01*
X55536Y149831D02*X56036Y149331D01*
Y151331D02*X57536D01*
X50894Y170985D02*X52394D01*
X50394Y171485D02*X50894Y170985D01*
X50394Y174485D02*Y171485D01*
Y174485D02*X50894Y174985D01*
X52394D01*
X53595Y170985D02*X56095Y173485D01*
Y174985D02*Y173485D01*
X53595Y174985D02*X56095D01*
X26969Y232072D02*Y228072D01*
X28969D01*
X30170Y230072D02*X31670D01*
X30170Y228072D02*X32170D01*
X30170Y232072D02*Y228072D01*
Y232072D02*X32170D01*
X33871D02*Y228072D01*
X35371Y232072D02*X35871Y231572D01*
Y228572D01*
X35371Y228072D02*X35871Y228572D01*
X33371Y228072D02*X35371D01*
X33371Y232072D02*X35371D01*
X37572Y228072D02*X38572D01*
X38072Y232072D02*Y228072D01*
X37072Y231072D02*X38072Y232072D01*
X39773Y231572D02*X40273Y232072D01*
X41773D01*
X42273Y231572D01*
Y230572D01*
X39773Y228072D02*X42273Y230572D01*
X39773Y228072D02*X42273D01*
X120866Y127740D02*X122866D01*
X123366Y127240D01*
Y126240D01*
X122866Y125740D02*X123366Y126240D01*
X121366Y125740D02*X122866D01*
X121366Y127740D02*Y123740D01*
Y125740D02*X123366Y123740D01*
X125067D02*X126067D01*
X125567Y127740D02*Y123740D01*
X124567Y126740D02*X125567Y127740D01*
X127768Y123740D02*X128768D01*
X128268Y127740D02*Y123740D01*
X127268Y126740D02*X128268Y127740D01*
X97351Y107661D02*Y103661D01*
X98851Y107661D02*X99351Y107161D01*
Y104161D01*
X98851Y103661D02*X99351Y104161D01*
X96851Y103661D02*X98851D01*
X96851Y107661D02*X98851D01*
X101052Y103661D02*X102052D01*
X101552Y107661D02*Y103661D01*
X100552Y106661D02*X101552Y107661D01*
X128741Y121835D02*X130741D01*
X131241Y121335D01*
Y120335D01*
X130741Y119835D02*X131241Y120335D01*
X129241Y119835D02*X130741D01*
X129241Y121835D02*Y117835D01*
Y119835D02*X131241Y117835D01*
X132942D02*X133942D01*
X133442Y121835D02*Y117835D01*
X132442Y120835D02*X133442Y121835D01*
X135143Y121335D02*X135643Y121835D01*
X137143D01*
X137643Y121335D01*
Y120335D01*
X135143Y117835D02*X137643Y120335D01*
X135143Y117835D02*X137643D01*
X120473Y57268D02*X122473D01*
X122973Y56768D01*
Y55768D01*
X122473Y55268D02*X122973Y55768D01*
X120973Y55268D02*X122473D01*
X120973Y57268D02*Y53268D01*
Y55268D02*X122973Y53268D01*
X124674D02*X125674D01*
X125174Y57268D02*Y53268D01*
X124174Y56268D02*X125174Y57268D01*
X126875Y53268D02*X128875Y55268D01*
Y56768D02*Y55268D01*
X128375Y57268D02*X128875Y56768D01*
X127375Y57268D02*X128375D01*
X126875Y56768D02*X127375Y57268D01*
X126875Y56768D02*Y55768D01*
X127375Y55268D01*
X128875D01*
X105937Y50968D02*X106437Y50468D01*
X104437Y50968D02*X105937D01*
X103937Y50468D02*X104437Y50968D01*
X103937Y50468D02*Y49468D01*
X104437Y48968D01*
X105937D01*
X106437Y48468D01*
Y47468D01*
X105937Y46968D02*X106437Y47468D01*
X104437Y46968D02*X105937D01*
X103937Y47468D02*X104437Y46968D01*
X107638Y50468D02*X108138Y50968D01*
X109638D01*
X110138Y50468D01*
Y49468D01*
X107638Y46968D02*X110138Y49468D01*
X107638Y46968D02*X110138D01*
X120472Y49001D02*X122472D01*
X122972Y48501D01*
Y47501D01*
X122472Y47001D02*X122972Y47501D01*
X120972Y47001D02*X122472D01*
X120972Y49001D02*Y45001D01*
Y47001D02*X122972Y45001D01*
X124673D02*X125673D01*
X125173Y49001D02*Y45001D01*
X124173Y48001D02*X125173Y49001D01*
X126874Y45501D02*X127374Y45001D01*
X126874Y46501D02*Y45501D01*
Y46501D02*X127374Y47001D01*
X128374D01*
X128874Y46501D01*
Y45501D01*
X128374Y45001D02*X128874Y45501D01*
X127374Y45001D02*X128374D01*
X126874Y47501D02*X127374Y47001D01*
X126874Y48501D02*Y47501D01*
Y48501D02*X127374Y49001D01*
X128374D01*
X128874Y48501D01*
Y47501D01*
X128374Y47001D02*X128874Y47501D01*
X82284Y101362D02*X84284D01*
X84784Y100862D01*
Y99862D01*
X84284Y99362D02*X84784Y99862D01*
X82784Y99362D02*X84284D01*
X82784Y101362D02*Y97362D01*
Y99362D02*X84784Y97362D01*
X86485D02*X87485D01*
X86985Y101362D02*Y97362D01*
X85985Y100362D02*X86985Y101362D01*
X88686Y100862D02*X89186Y101362D01*
X90186D01*
X90686Y100862D01*
Y97862D01*
X90186Y97362D02*X90686Y97862D01*
X89186Y97362D02*X90186D01*
X88686Y97862D02*X89186Y97362D01*
Y99362D02*X90686D01*
X78741Y16324D02*Y12324D01*
X80741D01*
X81942Y14324D02*X83442D01*
X81942Y12324D02*X83942D01*
X81942Y16324D02*Y12324D01*
Y16324D02*X83942D01*
X85643D02*Y12324D01*
X87143Y16324D02*X87643Y15824D01*
Y12824D01*
X87143Y12324D02*X87643Y12824D01*
X85143Y12324D02*X87143D01*
X85143Y16324D02*X87143D01*
X88844Y15824D02*X89344Y16324D01*
X90844D01*
X91344Y15824D01*
Y14824D01*
X88844Y12324D02*X91344Y14824D01*
X88844Y12324D02*X91344D01*
X106300Y100969D02*X108300D01*
X108800Y100469D01*
Y99469D01*
X108300Y98969D02*X108800Y99469D01*
X106800Y98969D02*X108300D01*
X106800Y100969D02*Y96969D01*
Y98969D02*X108800Y96969D01*
X110501D02*X111501D01*
X111001Y100969D02*Y96969D01*
X110001Y99969D02*X111001Y100969D01*
X112702D02*X114702D01*
X112702D02*Y98969D01*
X113202Y99469D01*
X114202D01*
X114702Y98969D01*
Y97469D01*
X114202Y96969D02*X114702Y97469D01*
X113202Y96969D02*X114202D01*
X112702Y97469D02*X113202Y96969D01*
X112206Y86796D02*X114206D01*
X114706Y86296D01*
Y85296D01*
X114206Y84796D02*X114706Y85296D01*
X112706Y84796D02*X114206D01*
X112706Y86796D02*Y82796D01*
Y84796D02*X114706Y82796D01*
X115907Y83296D02*X116407Y82796D01*
X115907Y84296D02*Y83296D01*
Y84296D02*X116407Y84796D01*
X117407D01*
X117907Y84296D01*
Y83296D01*
X117407Y82796D02*X117907Y83296D01*
X116407Y82796D02*X117407D01*
X115907Y85296D02*X116407Y84796D01*
X115907Y86296D02*Y85296D01*
Y86296D02*X116407Y86796D01*
X117407D01*
X117907Y86296D01*
Y85296D01*
X117407Y84796D02*X117907Y85296D01*
X112206Y95851D02*X114206D01*
X114706Y95351D01*
Y94351D01*
X114206Y93851D02*X114706Y94351D01*
X112706Y93851D02*X114206D01*
X112706Y95851D02*Y91851D01*
Y93851D02*X114706Y91851D01*
X115907D02*X118407Y94351D01*
Y95851D02*Y94351D01*
X115907Y95851D02*X118407D01*
X57550Y78503D02*X58050Y78003D01*
X56050Y78503D02*X57550D01*
X55550Y78003D02*X56050Y78503D01*
X55550Y78003D02*Y77003D01*
X56050Y76503D01*
X57550D01*
X58050Y76003D01*
Y75003D01*
X57550Y74503D02*X58050Y75003D01*
X56050Y74503D02*X57550D01*
X55550Y75003D02*X56050Y74503D01*
X59251Y75003D02*X62251Y78003D01*
X63452Y78503D02*X64952D01*
Y75003D01*
X64452Y74503D02*X64952Y75003D01*
X63952Y74503D02*X64452D01*
X63452Y75003D02*X63952Y74503D01*
X66153Y78003D02*X66653Y78503D01*
X67653D01*
X68153Y78003D01*
Y75003D01*
X67653Y74503D02*X68153Y75003D01*
X66653Y74503D02*X67653D01*
X66153Y75003D02*X66653Y74503D01*
Y76503D02*X68153D01*
X112599Y78134D02*X114599D01*
X115099Y77634D01*
Y76634D01*
X114599Y76134D02*X115099Y76634D01*
X113099Y76134D02*X114599D01*
X113099Y78134D02*Y74134D01*
Y76134D02*X115099Y74134D01*
X117800Y78134D02*X118300Y77634D01*
X116800Y78134D02*X117800D01*
X116300Y77634D02*X116800Y78134D01*
X116300Y77634D02*Y74634D01*
X116800Y74134D01*
X117800Y76134D02*X118300Y75634D01*
X116300Y76134D02*X117800D01*
X116800Y74134D02*X117800D01*
X118300Y74634D01*
Y75634D02*Y74634D01*
X112599Y70261D02*X114599D01*
X115099Y69761D01*
Y68761D01*
X114599Y68261D02*X115099Y68761D01*
X113099Y68261D02*X114599D01*
X113099Y70261D02*Y66261D01*
Y68261D02*X115099Y66261D01*
X116300Y70261D02*X118300D01*
X116300D02*Y68261D01*
X116800Y68761D01*
X117800D01*
X118300Y68261D01*
Y66761D01*
X117800Y66261D02*X118300Y66761D01*
X116800Y66261D02*X117800D01*
X116300Y66761D02*X116800Y66261D01*
X102862Y74922D02*X104362D01*
X102362Y75422D02*X102862Y74922D01*
X102362Y78422D02*Y75422D01*
Y78422D02*X102862Y78922D01*
X104362D01*
X105563Y78422D02*X106063Y78922D01*
X107063D01*
X107563Y78422D01*
Y75422D01*
X107063Y74922D02*X107563Y75422D01*
X106063Y74922D02*X107063D01*
X105563Y75422D02*X106063Y74922D01*
Y76922D02*X107563D01*
M02*
