M48
INCH
T11C0.020
T34C0.043
T36C0.038
T37C0.035
T39C0.028
%
T11
X018021Y006296
X017992Y005433
X018464Y006338
X016259Y007007
X016259Y007795
X015315Y002913
X020275Y001378
X014645Y004803
X016614Y004803
X022736Y002381
X010196Y011181
X010944Y010393
X008504Y010630
X005708Y010118
X005708Y011023
X007637Y010196
X009330Y010275
X012716Y009488
X007322Y009330
X011141Y008937
X010315Y008976
X010590Y008267
X010944Y007598
X011496Y008346
X012559Y012559
X015944Y017401
X015944Y016181
X013346Y016358
X016771Y010866
X016850Y012008
X016771Y013267
X017519Y008346
X017362Y013582
X017913Y013504
X017401Y009606
X015708Y013622
X013996Y014685
X014626Y013346
X004842Y006811
X012677Y005118
X004448Y007283
X007086Y005944
X003661Y005511
X000905Y007244
X007126Y004645
X007204Y003858
X009409Y003464
X006535Y004567
X001181Y003385
X011181Y004567
X007834Y021889
X007401Y019606
X007874Y020984
X001968Y019330
X000984Y020551
X005236Y016417
X006811Y015787
X006378Y016771
X007441Y015157
X006023Y015787
X009448Y015472
X004567Y018189
X005019Y019370
X005649Y019881
X012519Y018189
X010944Y017322
X022401Y018011
X022342Y021299
X021968Y022795
X016850Y020984
X024173Y016023
X024015Y018504
X020452Y019252
X020413Y018248
X024370Y020787
X022952Y021732
X023189Y021200
X010905Y013661
X010866Y014685
X011574Y014133
X010630Y013307
X009448Y014448
X010866Y014173
X013228Y012559
X017441Y014606
X015905Y015118
X006693Y013897
X007126Y012480
X015275Y011929
X008425Y013582
X008110Y014370
X007322Y012047
T39
X006456Y018622
X006496Y015196
X002756Y018582
X002755Y015236
T37
X020118Y008708
X020118Y009708
X021118Y009208
X020118Y010708
X020118Y011708
X021118Y011208
X021118Y012208
X021118Y010208
X005094Y012980
X004094Y012480
X005094Y010980
X004094Y010480
X004094Y011480
X004094Y009480
X005094Y009980
X005094Y011980
X016968Y007559
X019448Y014212
X021889Y010551
X007441Y017283
X007992Y019527
X012992Y020315
X017204Y017519
X014488Y015157
X003543Y014133
T36
X006055Y006850
X007055Y006850
X008055Y006850
X009055Y006850
X010055Y006850
X010671Y019196
X011671Y019196
X012671Y019196
X013671Y019196
T34
X002677Y006023
X003177Y006889
X003897Y003110
X003724Y004095
X017559Y002126
X016559Y002126
X014322Y001949
X013322Y001949
X012322Y001949
X019352Y003294
X006005Y002296
X006771Y001653
X021276Y006614
X021102Y005630
X020118Y003937
X011698Y021680
X012637Y021338
X008700Y020866
X009640Y021208
X014972Y021377
X015472Y020511
X020574Y021276
X021281Y020569
X021988Y019862
X003192Y019885
X003899Y020592
X004606Y021299
M30
