G04 start of page 13 for group -4062 idx -4062 *
G04 Title: (unknown), soldermask *
G04 Creator: pcb 20100929 *
G04 CreationDate: Mon 18 Oct 2010 20:02:07 GMT UTC *
G04 For: alex *
G04 Format: Gerber/RS-274X *
G04 PCB-Dimensions: 253937 234252 *
G04 PCB-Coordinate-Origin: lower left *
%MOIN*%
%FSLAX25Y25*%
%LNBACKMASK*%
%ADD11C,0.0200*%
%ADD38C,0.1280*%
%ADD45C,0.0710*%
%ADD46C,0.0866*%
%ADD47C,0.0660*%
%ADD48C,0.0700*%
%ADD49R,0.0382X0.0382*%
%ADD50R,0.0572X0.0572*%
%ADD51R,0.0300X0.0300*%
%ADD56R,0.0230X0.0230*%
%ADD57R,0.0590X0.0590*%
%ADD58R,0.0400X0.0400*%
%ADD59R,0.0454X0.0454*%
%ADD60R,0.1280X0.1280*%
%ADD61R,0.0620X0.0620*%
G54D11*G36*
X23222Y63787D02*Y56687D01*
X30322D01*
Y63787D01*
X23222D01*
G37*
G54D45*X31772Y68897D03*
G54D11*G36*
X35427Y34653D02*Y27553D01*
X42527D01*
Y34653D01*
X35427D01*
G37*
G54D45*X37240Y40951D03*
G54D11*G36*
X172041Y24810D02*Y17710D01*
X179141D01*
Y24810D01*
X172041D01*
G37*
G54D45*X165591Y21260D03*
G54D46*X143229Y19490D03*
X133229D03*
X123229D03*
G54D45*X193521Y32943D03*
G54D11*G36*
X57250Y71803D02*Y65203D01*
X63850D01*
Y71803D01*
X57250D01*
G37*
G54D45*X60057Y22964D03*
G54D47*X70550Y68503D03*
G54D11*G36*
X64167Y20086D02*Y12986D01*
X71267D01*
Y20086D01*
X64167D01*
G37*
G54D47*X80550Y68503D03*
X90550D03*
X100550D03*
G54D11*G36*
X209210Y69697D02*Y62597D01*
X216310D01*
Y69697D01*
X209210D01*
G37*
G54D45*X211024Y56300D03*
G54D48*X201182Y87087D03*
Y97087D03*
G54D11*G36*
X197632Y42921D02*Y35821D01*
X204732D01*
Y42921D01*
X197632D01*
G37*
G54D48*X211182Y92087D03*
G54D38*X236182Y82087D03*
G54D48*X201182Y107087D03*
Y117087D03*
X211182Y112087D03*
G54D11*G36*
X207682Y125587D02*Y118587D01*
X214682D01*
Y125587D01*
X207682D01*
G37*
G54D38*X236182Y127087D03*
G54D48*X211182Y102087D03*
G54D11*G36*
X103417Y195269D02*Y188669D01*
X110017D01*
Y195269D01*
X103417D01*
G37*
G54D47*X116717Y191969D03*
X126717D03*
X136717D03*
G54D11*G36*
X113431Y220357D02*Y213257D01*
X120531D01*
Y220357D01*
X113431D01*
G37*
G54D45*X126378Y213386D03*
G54D11*G36*
X83458Y212212D02*Y205112D01*
X90558D01*
Y212212D01*
X83458D01*
G37*
G54D45*X96405Y212082D03*
G54D11*G36*
X146175Y217329D02*Y210229D01*
X153275D01*
Y217329D01*
X146175D01*
G37*
G54D45*X154725Y205119D03*
G54D46*X205741Y212764D03*
X212812Y205693D03*
X219883Y198622D03*
G54D11*G36*
X61267Y189520D02*Y182920D01*
X67867D01*
Y189520D01*
X61267D01*
G37*
G36*
X61661Y155269D02*Y148669D01*
X68261D01*
Y155269D01*
X61661D01*
G37*
G54D46*X31920Y198850D03*
X38991Y205921D03*
X46063Y212993D03*
G54D11*G36*
X24260Y189127D02*Y182527D01*
X30860D01*
Y189127D01*
X24260D01*
G37*
G36*
X24259Y155663D02*Y149063D01*
X30859D01*
Y155663D01*
X24259D01*
G37*
G54D38*X15945Y134804D03*
G54D48*X50945Y129804D03*
X40945Y124804D03*
X50945Y109804D03*
X40945Y104804D03*
Y114804D03*
G54D11*G36*
X37445Y98304D02*Y91304D01*
X44445D01*
Y98304D01*
X37445D01*
G37*
G54D48*X50945Y99804D03*
G54D38*X15945Y89804D03*
G54D48*X50945Y119804D03*
G54D51*X96217Y28769D02*Y27169D01*
Y20569D02*Y18969D01*
X100117Y28769D02*Y27169D01*
Y20569D02*Y18969D01*
X104017Y28769D02*Y27169D01*
Y20569D02*Y18969D01*
G54D56*X113388Y117716D02*X117994D01*
X113388Y120275D02*X117994D01*
X113388Y122834D02*X117994D01*
X113388Y115157D02*X117994D01*
X136616D02*X141222D01*
X136616Y133069D02*X141222D01*
X136616Y130510D02*X141222D01*
X136616Y127951D02*X141222D01*
X136616Y125392D02*X141222D01*
X136616Y122834D02*X141222D01*
X136616Y120275D02*X141222D01*
X136616Y117716D02*X141222D01*
G54D58*X156392Y123624D02*X156992D01*
X156392Y115824D02*X156992D01*
X148192Y119724D02*X148792D01*
X163873Y116143D02*X164473D01*
X163873Y123943D02*X164473D01*
G54D50*X192127Y124803D02*Y122441D01*
X180317Y124803D02*Y122441D01*
X192126Y116143D02*Y113781D01*
X180316Y116143D02*Y113781D01*
G54D58*X172073Y120043D02*X172673D01*
G54D51*X127560Y74016D02*Y72416D01*
X123660Y74016D02*Y72416D01*
X119760Y74016D02*Y72416D01*
G54D56*X113388Y125392D02*X117994D01*
X113388Y127951D02*X117994D01*
X113388Y130510D02*X117994D01*
X113388Y133069D02*X117994D01*
G54D49*X119201Y92681D02*X120169D01*
X119201Y86847D02*X120169D01*
X127166Y90339D02*Y89371D01*
G54D57*X126196Y104382D02*Y101182D01*
G54D49*X133000Y90339D02*Y89371D01*
G54D57*X137796Y104382D02*Y101182D01*
G54D51*X119760Y82216D02*Y80616D01*
X123660Y82216D02*Y80616D01*
X127560Y82216D02*Y80616D01*
G54D49*X109056Y97425D02*Y96457D01*
X114890Y97425D02*Y96457D01*
X69453Y96941D02*Y95973D01*
X73694Y110237D02*Y109269D01*
X79528Y110237D02*Y109269D01*
G54D58*X93563Y90589D02*X94163D01*
X93563Y98389D02*X94163D01*
X85527Y97245D02*X86127D01*
X85527Y89445D02*X86127D01*
X77327Y93345D02*X77927D01*
X51574Y176503D02*X52174D01*
X51574Y168703D02*X52174D01*
X43374Y172603D02*X43974D01*
G54D49*X34860Y177559D02*X35828D01*
X34860Y171725D02*X35828D01*
X57875Y170866D02*X58843D01*
X57875Y176700D02*X58843D01*
G54D58*X90121Y113454D02*Y112854D01*
X94021Y121654D02*Y121054D01*
X101763Y94489D02*X102363D01*
G54D49*X101485Y124177D02*X102453D01*
X101485Y118343D02*X102453D01*
X63619Y96941D02*Y95973D01*
X58965Y96225D02*X59933D01*
X58965Y90391D02*X59933D01*
X63619Y90642D02*Y89674D01*
X69453Y90642D02*Y89674D01*
G54D59*X63780Y115749D02*X65748D01*
X63780Y121261D02*X65748D01*
G54D50*X61025Y135827D02*Y133465D01*
Y144489D02*Y142127D01*
X72835Y144489D02*Y142127D01*
G54D59*X77560Y121261D02*X79528D01*
X77560Y115749D02*X79528D01*
G54D50*X72835Y135827D02*Y133465D01*
G54D58*X86221Y121654D02*Y121054D01*
X79596Y135864D02*X80196D01*
G54D60*X109843Y164567D02*Y155567D01*
G54D58*X95070Y131890D02*X95670D01*
X95070Y139690D02*X95670D01*
X103270Y135790D02*X103870D01*
G54D57*X102756Y181497D02*Y178297D01*
X114356Y181497D02*Y178297D01*
G54D50*X81104Y178740D02*Y177954D01*
G54D49*X81335Y186311D02*Y185343D01*
G54D50*X88190Y178740D02*Y177954D01*
G54D49*X87169Y186311D02*Y185343D01*
X94308Y193236D02*X95276D01*
X94308Y187402D02*X95276D01*
G54D61*X82143Y151067D02*X88743D01*
X82143Y160067D02*X88743D01*
X82143Y169167D02*X88743D01*
G54D58*X87796Y139764D02*X88396D01*
X87796Y131964D02*X88396D01*
M02*
